<?xml version="1.0" encoding="UTF-8"?>
<svg id="svg2" width="44.399mm" height="35.764mm" version="1.1" viewBox="0 0 44.399 35.764" xmlns="http://www.w3.org/2000/svg">
	<path id="path1" d="m44.399 25.556c0 2.4384-0.47413 4.0809-1.4224 4.9276-0.9144 0.84667-2.6077 1.27-5.08 1.27h-15.646c-2.4723 0-4.1825-0.42333-5.1308-1.27-0.9144-0.84667-1.3716-2.4892-1.3716-4.9276v-13.818c0-2.4384 0.4572-4.0809 1.3716-4.9276 0.94827-0.84667 2.6585-1.27 5.1308-1.27h15.646c3.1157 0 5.0461 0.72813 5.7912 2.1844 0.47413 0.84667 0.7112 3.0141 0.7112 6.5024l-6.096 0.9652v-4.9784h-16.459v16.612h16.459v-5.6388l6.096 1.27z" stroke-width=".26458" aria-label="CA"/>
	<path id="path2" d="m26.213 0v6.858l-5.7404 3.1496v16.612l5.7404 3.048v6.096l-26.213-14.834v-5.8928zm-10.465 12.548-10.668 5.6388 10.668 5.842z" stroke-width=".26458"/>
</svg>