<?xml version="1.0" encoding="UTF-8"?>
<svg width="718.64" height="800" fill="#000000" version="1.1" viewBox="0 0 53 59" xml:space="preserve" xmlns="http://www.w3.org/2000/svg">
	<path d="m27.5 9.9998c1.93 0 3.5-1.57 3.5-3.5s-1.57-3.5-3.5-3.5-3.5 1.57-3.5 3.5 1.57 3.5 3.5 3.5zm0-5c0.827 0 1.5 0.673 1.5 1.5s-0.673 1.5-1.5 1.5-1.5-0.673-1.5-1.5 0.673-1.5 1.5-1.5z"/>
	<path d="m6.5 9.9998c1.93 0 3.5-1.57 3.5-3.5s-1.57-3.5-3.5-3.5-3.5 1.57-3.5 3.5 1.57 3.5 3.5 3.5zm0-5c0.827 0 1.5 0.673 1.5 1.5s-0.673 1.5-1.5 1.5-1.5-0.673-1.5-1.5 0.673-1.5 1.5-1.5z"/>
	<path d="m6.5 48c-1.93 0-3.5 1.57-3.5 3.5s1.57 3.5 3.5 3.5 3.5-1.57 3.5-3.5-1.57-3.5-3.5-3.5zm0 5c-0.827 0-1.5-0.673-1.5-1.5s0.673-1.5 1.5-1.5 1.5 0.673 1.5 1.5-0.673 1.5-1.5 1.5z"/>
	<path d="m43 17.016v-17.016h-43v58h24.039c1.584 0.632 3.444 1 5.461 1 2.488 0 4.742-0.554 6.523-1.484 1.842 0.957 4.113 1.484 6.477 1.484 5.888 0 10.5-3.075 10.5-7v-28c0-3.813-4.355-6.814-10-6.984zm8 6.984c0 2.71-3.893 5-8.5 5s-8.5-2.29-8.5-5c0-0.167 0.015-0.332 0.044-0.495 8e-3 -0.047 0.025-0.093 0.036-0.139 0.026-0.116 0.053-0.233 0.093-0.347 0.018-0.051 0.045-0.101 0.066-0.152 0.044-0.107 0.087-0.215 0.144-0.32 0.031-0.058 0.071-0.113 0.106-0.17 0.057-0.095 0.113-0.19 0.18-0.282 0.054-0.074 0.118-0.146 0.179-0.219 0.058-0.071 0.112-0.142 0.176-0.211 0.098-0.106 0.208-0.209 0.32-0.311 0.035-0.032 0.066-0.066 0.102-0.097 0.309-0.27 0.665-0.526 1.067-0.764 0.389-0.231 0.809-0.435 1.254-0.615 0.026-0.011 0.054-0.02 0.081-0.031 0.44-0.174 0.902-0.325 1.39-0.447 0.017-4e-3 0.035-7e-3 0.052-0.012 0.414-0.102 0.842-0.184 1.28-0.245 0.018-3e-3 0.035-6e-3 0.053-8e-3 0.461-0.062 0.932-0.102 1.412-0.118l0.47-0.017c4.605 2e-3 8.495 2.29 8.495 5zm-0.065 24.578c-0.017 0.084-0.042 0.167-0.067 0.251-0.023 0.078-0.045 0.156-0.074 0.232-0.032 0.082-0.071 0.163-0.11 0.244-0.036 0.075-0.07 0.15-0.112 0.224-0.045 0.079-0.097 0.157-0.149 0.234-0.048 0.072-0.094 0.145-0.148 0.215-0.058 0.077-0.123 0.151-0.188 0.225-0.059 0.068-0.115 0.137-0.179 0.203-0.071 0.074-0.149 0.145-0.226 0.216-0.068 0.064-0.134 0.128-0.207 0.19-0.082 0.07-0.172 0.136-0.26 0.203-0.078 0.059-0.153 0.119-0.235 0.177-0.093 0.065-0.193 0.126-0.292 0.188-0.086 0.055-0.17 0.11-0.26 0.163-0.103 0.06-0.212 0.115-0.32 0.172-0.095 0.05-0.187 0.101-0.285 0.148-0.113 0.054-0.232 0.104-0.35 0.155-0.1 0.044-0.198 0.089-0.302 0.13-0.124 0.049-0.255 0.093-0.384 0.139-0.104 0.037-0.205 0.076-0.312 0.11-0.133 0.043-0.273 0.08-0.41 0.118-0.109 0.031-0.215 0.064-0.326 0.092-0.143 0.036-0.291 0.065-0.437 0.096-0.111 0.024-0.219 0.051-0.332 0.071-0.159 0.029-0.322 0.051-0.484 0.075-0.105 0.016-0.209 0.035-0.316 0.048-0.181 0.022-0.366 0.036-0.55 0.051-0.092 8e-3 -0.182 0.019-0.275 0.025-0.278 0.018-0.56 0.027-0.845 0.027-0.391 0-0.776-0.022-1.158-0.054-0.104-9e-3 -0.207-0.019-0.31-0.03-0.321-0.034-0.639-0.079-0.953-0.136-0.046-8e-3 -0.093-0.014-0.14-0.023 0.039-0.249 0.061-0.501 0.061-0.757v-1.2c0.07 0.011 0.141 0.015 0.211 0.025 0.27 0.04 0.542 0.073 0.815 0.098 0.113 0.011 0.225 0.023 0.338 0.031 0.377 0.028 0.755 0.046 1.136 0.046 0.409 0 0.81-0.018 1.206-0.047 0.128-9e-3 0.251-0.025 0.378-0.037 0.267-0.026 0.531-0.056 0.79-0.094 0.142-0.021 0.281-0.046 0.42-0.07 0.24-0.043 0.476-0.09 0.708-0.144 0.136-0.031 0.27-0.062 0.403-0.097 0.24-0.062 0.472-0.132 0.703-0.206 0.112-0.036 0.226-0.068 0.335-0.106 0.32-0.112 0.632-0.232 0.93-0.364 0.012-5e-3 0.024-9e-3 0.036-0.014 0.309-0.138 0.603-0.289 0.887-0.448 0.091-0.051 0.175-0.106 0.263-0.159 0.189-0.114 0.374-0.23 0.55-0.352 0.094-0.066 0.184-0.134 0.275-0.202 0.161-0.121 0.314-0.246 0.462-0.374 0.044-0.039 0.096-0.073 0.139-0.112-3e-3 0.055-8e-3 0.111-0.015 0.166-0.01 0.078-0.019 0.158-0.035 0.238zm-13 0c-0.017 0.084-0.042 0.167-0.067 0.251-0.023 0.078-0.045 0.156-0.074 0.232-0.032 0.082-0.071 0.163-0.11 0.244-0.036 0.075-0.07 0.15-0.112 0.224-0.045 0.079-0.097 0.157-0.149 0.234-0.048 0.072-0.094 0.145-0.148 0.215-0.058 0.077-0.123 0.151-0.188 0.225-0.059 0.068-0.115 0.137-0.179 0.203-0.071 0.074-0.149 0.145-0.226 0.216-0.068 0.064-0.134 0.128-0.207 0.19-0.082 0.07-0.172 0.136-0.26 0.203-0.078 0.059-0.153 0.119-0.235 0.177-0.093 0.065-0.193 0.126-0.292 0.188-0.086 0.055-0.17 0.11-0.26 0.163-0.103 0.06-0.212 0.115-0.32 0.172-0.095 0.05-0.187 0.101-0.285 0.148-0.113 0.054-0.232 0.104-0.35 0.155-0.1 0.044-0.198 0.089-0.302 0.13-0.124 0.049-0.255 0.093-0.384 0.139-0.104 0.037-0.205 0.076-0.312 0.11-0.133 0.043-0.273 0.08-0.41 0.118-0.109 0.031-0.215 0.064-0.326 0.092-0.143 0.036-0.291 0.065-0.437 0.096-0.111 0.024-0.219 0.051-0.332 0.071-0.159 0.029-0.322 0.051-0.484 0.075-0.105 0.016-0.209 0.035-0.316 0.048-0.181 0.022-0.366 0.036-0.55 0.051-0.092 8e-3 -0.182 0.019-0.275 0.025-0.278 0.018-0.56 0.027-0.845 0.027s-0.567-9e-3 -0.846-0.026c-0.093-6e-3 -0.183-0.017-0.275-0.025-0.185-0.015-0.37-0.029-0.55-0.051-0.107-0.013-0.21-0.032-0.316-0.048-0.162-0.024-0.325-0.046-0.484-0.075-0.112-0.021-0.22-0.048-0.331-0.071-0.147-0.031-0.295-0.061-0.439-0.097-0.111-0.028-0.216-0.061-0.324-0.091-0.138-0.039-0.278-0.076-0.412-0.119-0.107-0.034-0.208-0.073-0.312-0.11-0.129-0.046-0.259-0.089-0.384-0.139-0.104-0.041-0.201-0.087-0.302-0.13-0.117-0.051-0.237-0.101-0.35-0.155-0.098-0.047-0.19-0.099-0.285-0.148-0.108-0.057-0.217-0.112-0.32-0.172-0.09-0.052-0.174-0.108-0.26-0.163-0.098-0.062-0.199-0.123-0.292-0.188-0.082-0.057-0.157-0.117-0.235-0.177-0.088-0.067-0.178-0.133-0.26-0.203-0.073-0.062-0.139-0.126-0.207-0.19-0.077-0.071-0.155-0.142-0.226-0.216-0.063-0.066-0.12-0.135-0.178-0.202-0.064-0.075-0.13-0.149-0.188-0.226-0.053-0.07-0.099-0.142-0.147-0.214-0.052-0.078-0.105-0.156-0.15-0.235-0.042-0.073-0.076-0.149-0.112-0.224-0.039-0.081-0.078-0.162-0.11-0.244-0.029-0.076-0.051-0.154-0.074-0.232-0.025-0.083-0.05-0.166-0.067-0.251-0.016-0.079-0.025-0.16-0.035-0.24-7e-3 -0.055-0.011-0.11-0.015-0.166 0.043 0.039 0.094 0.074 0.138 0.112 0.148 0.129 0.302 0.254 0.463 0.375 0.09 0.068 0.18 0.136 0.274 0.201 0.176 0.123 0.361 0.239 0.551 0.353 0.088 0.053 0.172 0.108 0.263 0.159 0.284 0.159 0.578 0.31 0.887 0.448 0.011 5e-3 0.022 8e-3 0.033 0.013 0.3 0.133 0.612 0.254 0.933 0.365 0.109 0.038 0.223 0.07 0.335 0.106 0.23 0.073 0.463 0.143 0.703 0.206 0.133 0.034 0.267 0.065 0.403 0.096 0.232 0.053 0.468 0.101 0.708 0.144 0.139 0.025 0.278 0.049 0.42 0.07 0.259 0.039 0.523 0.068 0.79 0.094 0.126 0.012 0.25 0.028 0.377 0.037 0.398 0.031 0.799 0.049 1.208 0.049s0.81-0.018 1.206-0.047c0.128-9e-3 0.251-0.025 0.378-0.037 0.267-0.026 0.531-0.056 0.79-0.094 0.142-0.021 0.281-0.046 0.42-0.07 0.24-0.043 0.476-0.09 0.708-0.144 0.136-0.031 0.27-0.062 0.403-0.097 0.24-0.062 0.472-0.132 0.703-0.206 0.112-0.036 0.226-0.068 0.335-0.106 0.32-0.112 0.632-0.232 0.93-0.364 0.012-5e-3 0.024-9e-3 0.036-0.014 0.309-0.138 0.603-0.289 0.887-0.448 0.091-0.051 0.175-0.106 0.263-0.159 0.189-0.114 0.374-0.23 0.55-0.352 0.094-0.066 0.184-0.134 0.275-0.202 0.161-0.121 0.314-0.246 0.462-0.374 0.044-0.039 0.096-0.073 0.139-0.112-3e-3 0.055-8e-3 0.111-0.015 0.166-0.01 0.078-0.019 0.158-0.035 0.238zm-30.935-29.365v-6.232c3.187-0.244 5.737-2.794 5.981-5.981h8.037c0.244 3.187 2.795 5.737 5.981 5.981v6.232c-0.015-0.015-0.031-0.028-0.046-0.043-0.168-0.17-0.348-0.327-0.525-0.488-0.171-0.157-0.337-0.32-0.514-0.468-0.065-0.054-0.135-0.1-0.201-0.152-2.051-1.644-4.529-2.686-7.189-2.975-0.033-4e-3 -0.064-0.011-0.097-0.015-0.47-0.047-0.946-0.072-1.427-0.072s-0.957 0.025-1.428 0.072c-0.033 3e-3 -0.064 0.011-0.097 0.015-2.66 0.288-5.138 1.331-7.189 2.975-0.066 0.052-0.136 0.099-0.201 0.152-0.178 0.148-0.344 0.311-0.514 0.468-0.176 0.161-0.357 0.318-0.525 0.488-0.015 0.015-0.031 0.028-0.046 0.043zm24.121 11.884c0.015 2e-3 0.03 2e-3 0.045 4e-3 0.528 0.065 1.047 0.161 1.556 0.287 0.438 0.109 0.854 0.242 1.253 0.392 0.195 0.073 0.385 0.151 0.57 0.233 0.102 0.045 0.208 0.088 0.306 0.136 0.276 0.135 0.537 0.281 0.784 0.436 0.056 0.034 0.109 0.07 0.163 0.105 0.541 0.358 1.005 0.759 1.36 1.191 0.01 0.012 0.021 0.025 0.031 0.037 0.121 0.15 0.227 0.302 0.32 0.455 0.011 0.018 0.023 0.035 0.033 0.052 0.086 0.145 0.155 0.292 0.217 0.439 0.012 0.029 0.027 0.056 0.038 0.085 0.053 0.138 0.09 0.277 0.122 0.417 8e-3 0.036 0.022 0.072 0.029 0.108 0.034 0.176 0.052 0.35 0.052 0.526 0 2.71-3.893 5-8.5 5s-8.5-2.29-8.5-5c0-0.435 0.11-0.857 0.298-1.263 0.274-0.594 0.741-1.156 1.367-1.658 0.04-0.032 0.081-0.064 0.123-0.096 0.175-0.134 0.363-0.263 0.561-0.387 1.562-0.974 3.757-1.596 6.151-1.596 0.546 0 1.087 0.034 1.621 0.097zm3.496-2.438c0.09 0.068 0.18 0.136 0.274 0.201 0.176 0.123 0.361 0.239 0.551 0.353 0.088 0.053 0.172 0.108 0.263 0.159 0.284 0.159 0.578 0.31 0.887 0.448 0.011 5e-3 0.022 8e-3 0.033 0.013 0.3 0.133 0.612 0.254 0.933 0.365 0.109 0.038 0.223 0.07 0.335 0.106 0.23 0.073 0.463 0.143 0.703 0.206 0.133 0.034 0.267 0.065 0.403 0.096 0.232 0.053 0.468 0.101 0.708 0.144 0.139 0.025 0.278 0.049 0.42 0.07 0.259 0.039 0.523 0.068 0.79 0.094 0.126 0.012 0.25 0.028 0.377 0.037 0.396 0.031 0.797 0.049 1.206 0.049s0.81-0.018 1.206-0.047c0.128-9e-3 0.251-0.025 0.378-0.037 0.267-0.026 0.531-0.056 0.79-0.094 0.142-0.021 0.281-0.046 0.42-0.07 0.24-0.043 0.476-0.09 0.708-0.144 0.136-0.031 0.27-0.062 0.403-0.097 0.24-0.062 0.472-0.132 0.703-0.206 0.112-0.036 0.226-0.068 0.335-0.106 0.32-0.112 0.632-0.232 0.93-0.364 0.012-5e-3 0.024-9e-3 0.036-0.014 0.309-0.138 0.603-0.289 0.887-0.448 0.091-0.051 0.175-0.106 0.263-0.159 0.189-0.114 0.374-0.23 0.55-0.352 0.094-0.066 0.184-0.134 0.275-0.202 0.161-0.121 0.314-0.246 0.462-0.374 0.044-0.039 0.096-0.073 0.139-0.112-3e-3 0.055-8e-3 0.111-0.015 0.166-0.01 0.08-0.018 0.161-0.035 0.24-0.017 0.084-0.042 0.167-0.067 0.251-0.023 0.078-0.045 0.156-0.074 0.232-0.032 0.082-0.071 0.163-0.11 0.244-0.036 0.075-0.07 0.15-0.112 0.224-0.045 0.079-0.097 0.157-0.149 0.234-0.048 0.072-0.094 0.145-0.148 0.215-0.058 0.077-0.123 0.151-0.188 0.225-0.059 0.068-0.115 0.137-0.179 0.203-0.071 0.074-0.149 0.145-0.226 0.216-0.068 0.064-0.134 0.128-0.207 0.19-0.082 0.07-0.172 0.136-0.26 0.203-0.078 0.059-0.153 0.119-0.235 0.177-0.093 0.065-0.193 0.126-0.292 0.188-0.086 0.055-0.17 0.11-0.26 0.163-0.103 0.06-0.212 0.115-0.32 0.172-0.095 0.05-0.187 0.101-0.285 0.148-0.113 0.054-0.232 0.104-0.35 0.155-0.1 0.044-0.198 0.089-0.302 0.13-0.124 0.049-0.255 0.093-0.384 0.139-0.104 0.037-0.205 0.076-0.312 0.11-0.133 0.043-0.273 0.08-0.41 0.118-0.109 0.031-0.215 0.064-0.326 0.092-0.143 0.036-0.291 0.065-0.437 0.096-0.111 0.024-0.219 0.051-0.332 0.071-0.159 0.029-0.322 0.051-0.484 0.075-0.105 0.016-0.209 0.035-0.316 0.048-0.181 0.022-0.366 0.036-0.55 0.051-0.092 8e-3 -0.182 0.019-0.275 0.025-0.278 0.016-0.56 0.025-0.845 0.025-0.359 0-0.716-0.015-1.07-0.042-0.113-9e-3 -0.223-0.026-0.335-0.037-0.24-0.024-0.479-0.049-0.714-0.085-0.131-0.02-0.258-0.049-0.388-0.073-0.211-0.039-0.423-0.078-0.629-0.128-0.132-0.032-0.26-0.071-0.389-0.106-0.149-0.041-0.296-0.084-0.44-0.13-0.934-1.056-2.267-1.926-3.88-2.521-0.397-0.554-0.616-1.129-0.65-1.714 0.046 0.042 0.101 0.079 0.149 0.121 0.148 0.128 0.302 0.253 0.463 0.374zm15.492 4.202c0.094-0.066 0.184-0.134 0.275-0.202 0.161-0.121 0.314-0.246 0.462-0.374 0.044-0.039 0.096-0.073 0.139-0.112-3e-3 0.055-8e-3 0.111-0.015 0.166-0.01 0.08-0.018 0.161-0.035 0.24-0.017 0.084-0.042 0.167-0.067 0.251-0.023 0.078-0.045 0.156-0.074 0.232-0.032 0.082-0.071 0.163-0.11 0.244-0.036 0.075-0.07 0.15-0.112 0.224-0.045 0.079-0.097 0.157-0.149 0.234-0.048 0.072-0.094 0.145-0.148 0.215-0.058 0.077-0.123 0.151-0.188 0.225-0.059 0.068-0.115 0.137-0.179 0.203-0.071 0.074-0.149 0.145-0.226 0.216-0.068 0.064-0.134 0.128-0.207 0.19-0.082 0.07-0.172 0.136-0.26 0.203-0.078 0.059-0.153 0.119-0.235 0.177-0.093 0.065-0.193 0.126-0.292 0.188-0.086 0.055-0.17 0.11-0.26 0.163-0.103 0.06-0.212 0.115-0.32 0.172-0.095 0.05-0.187 0.101-0.285 0.148-0.113 0.054-0.232 0.104-0.35 0.155-0.1 0.044-0.198 0.089-0.302 0.13-0.124 0.049-0.255 0.093-0.384 0.139-0.104 0.037-0.205 0.076-0.312 0.11-0.133 0.043-0.273 0.08-0.41 0.118-0.109 0.031-0.215 0.064-0.326 0.092-0.143 0.036-0.291 0.065-0.437 0.096-0.111 0.024-0.219 0.051-0.332 0.071-0.159 0.029-0.322 0.051-0.484 0.075-0.105 0.016-0.209 0.035-0.316 0.048-0.181 0.022-0.366 0.036-0.55 0.051-0.092 8e-3 -0.182 0.019-0.275 0.025-0.278 0.017-0.56 0.026-0.845 0.026-0.503 0-1.001-0.036-1.494-0.09-0.147-0.016-0.293-0.04-0.439-0.061-0.191-0.027-0.378-0.069-0.567-0.105v-0.744c0-0.219-0.018-0.438-0.048-0.656-0.018-0.137-0.05-0.27-0.08-0.405-0.012-0.055-0.018-0.11-0.032-0.164 0.023 4e-3 0.046 5e-3 0.069 9e-3 0.283 0.047 0.572 0.078 0.86 0.11 0.142 0.016 0.281 0.039 0.424 0.051 0.433 0.036 0.869 0.055 1.307 0.055 0.409 0 0.81-0.018 1.206-0.047 0.128-9e-3 0.251-0.025 0.378-0.037 0.267-0.026 0.531-0.056 0.79-0.094 0.142-0.021 0.281-0.046 0.42-0.07 0.24-0.043 0.476-0.09 0.708-0.144 0.136-0.031 0.27-0.062 0.403-0.097 0.24-0.062 0.472-0.132 0.703-0.206 0.112-0.036 0.226-0.068 0.335-0.106 0.32-0.112 0.632-0.232 0.93-0.364 0.012-5e-3 0.024-9e-3 0.036-0.014 0.309-0.138 0.603-0.289 0.887-0.448 0.091-0.051 0.175-0.106 0.263-0.159 0.189-0.114 0.374-0.231 0.55-0.353zm0 4c0.094-0.066 0.184-0.134 0.275-0.202 0.161-0.121 0.314-0.246 0.462-0.374 0.044-0.039 0.096-0.073 0.139-0.112-3e-3 0.055-8e-3 0.111-0.015 0.166-0.01 0.08-0.018 0.161-0.035 0.24-0.017 0.084-0.042 0.167-0.067 0.251-0.023 0.078-0.045 0.156-0.074 0.232-0.032 0.082-0.071 0.163-0.11 0.244-0.036 0.075-0.07 0.15-0.112 0.224-0.045 0.079-0.097 0.157-0.149 0.234-0.048 0.072-0.094 0.145-0.148 0.215-0.058 0.077-0.123 0.151-0.188 0.225-0.059 0.068-0.115 0.137-0.179 0.203-0.071 0.074-0.149 0.145-0.226 0.216-0.068 0.064-0.134 0.128-0.207 0.19-0.082 0.07-0.172 0.136-0.26 0.203-0.078 0.059-0.153 0.119-0.235 0.177-0.093 0.065-0.193 0.126-0.292 0.188-0.086 0.055-0.17 0.11-0.26 0.163-0.103 0.06-0.212 0.115-0.32 0.172-0.095 0.05-0.187 0.101-0.285 0.148-0.113 0.054-0.232 0.104-0.35 0.155-0.1 0.044-0.198 0.089-0.302 0.13-0.124 0.049-0.255 0.093-0.384 0.139-0.104 0.037-0.205 0.076-0.312 0.11-0.133 0.043-0.273 0.08-0.41 0.118-0.109 0.031-0.215 0.064-0.326 0.092-0.143 0.036-0.291 0.065-0.437 0.096-0.111 0.024-0.219 0.051-0.332 0.071-0.159 0.029-0.322 0.051-0.484 0.075-0.105 0.016-0.209 0.035-0.316 0.048-0.181 0.022-0.366 0.036-0.55 0.051-0.092 8e-3 -0.182 0.019-0.275 0.025-0.278 0.017-0.56 0.026-0.845 0.026-0.503 0-1.001-0.036-1.494-0.09-0.147-0.016-0.293-0.04-0.439-0.061-0.191-0.027-0.378-0.069-0.567-0.105v-1.944c0.07 0.011 0.141 0.015 0.211 0.025 0.27 0.04 0.542 0.073 0.815 0.098 0.113 0.011 0.225 0.023 0.338 0.031 0.377 0.028 0.755 0.046 1.136 0.046 0.409 0 0.81-0.018 1.206-0.047 0.128-9e-3 0.251-0.025 0.378-0.037 0.267-0.026 0.531-0.056 0.79-0.094 0.142-0.021 0.281-0.046 0.42-0.07 0.24-0.043 0.476-0.09 0.708-0.144 0.136-0.031 0.27-0.062 0.403-0.097 0.24-0.062 0.472-0.132 0.703-0.206 0.112-0.036 0.226-0.068 0.335-0.106 0.32-0.112 0.632-0.232 0.93-0.364 0.012-5e-3 0.024-9e-3 0.036-0.014 0.309-0.138 0.603-0.289 0.887-0.448 0.091-0.051 0.175-0.106 0.263-0.159 0.189-0.114 0.374-0.231 0.55-0.353zm0 4c0.094-0.066 0.184-0.134 0.275-0.202 0.161-0.121 0.314-0.246 0.462-0.374 0.044-0.039 0.096-0.073 0.139-0.112-3e-3 0.055-8e-3 0.111-0.015 0.166-0.01 0.08-0.018 0.161-0.035 0.24-0.017 0.084-0.042 0.167-0.067 0.251-0.023 0.078-0.045 0.156-0.074 0.232-0.032 0.082-0.071 0.163-0.11 0.244-0.036 0.075-0.07 0.15-0.112 0.224-0.045 0.079-0.097 0.157-0.149 0.234-0.048 0.072-0.094 0.145-0.148 0.215-0.058 0.077-0.123 0.151-0.188 0.225-0.059 0.068-0.115 0.137-0.179 0.203-0.071 0.074-0.149 0.145-0.226 0.216-0.068 0.064-0.134 0.128-0.207 0.19-0.082 0.07-0.172 0.136-0.26 0.203-0.078 0.059-0.153 0.119-0.235 0.177-0.093 0.065-0.193 0.126-0.292 0.188-0.086 0.055-0.17 0.11-0.26 0.163-0.103 0.06-0.212 0.115-0.32 0.172-0.095 0.05-0.187 0.101-0.285 0.148-0.113 0.054-0.232 0.104-0.35 0.155-0.1 0.044-0.198 0.089-0.302 0.13-0.124 0.049-0.255 0.093-0.384 0.139-0.104 0.037-0.205 0.076-0.312 0.11-0.133 0.043-0.273 0.08-0.41 0.118-0.109 0.031-0.215 0.064-0.326 0.092-0.143 0.036-0.291 0.065-0.437 0.096-0.111 0.024-0.219 0.051-0.332 0.071-0.159 0.029-0.322 0.051-0.484 0.075-0.105 0.016-0.209 0.035-0.316 0.048-0.181 0.022-0.366 0.036-0.55 0.051-0.092 8e-3 -0.182 0.019-0.275 0.025-0.278 0.017-0.56 0.026-0.845 0.026-0.503 0-1.001-0.036-1.494-0.09-0.147-0.016-0.293-0.04-0.439-0.061-0.191-0.027-0.378-0.069-0.567-0.105v-1.944c0.07 0.011 0.141 0.015 0.211 0.025 0.27 0.04 0.542 0.073 0.815 0.098 0.113 0.011 0.225 0.023 0.338 0.031 0.377 0.028 0.755 0.046 1.136 0.046 0.409 0 0.81-0.018 1.206-0.047 0.128-9e-3 0.251-0.025 0.378-0.037 0.267-0.026 0.531-0.056 0.79-0.094 0.142-0.021 0.281-0.046 0.42-0.07 0.24-0.043 0.476-0.09 0.708-0.144 0.136-0.031 0.27-0.062 0.403-0.097 0.24-0.062 0.472-0.132 0.703-0.206 0.112-0.036 0.226-0.068 0.335-0.106 0.32-0.112 0.632-0.232 0.93-0.364 0.012-5e-3 0.024-9e-3 0.036-0.014 0.309-0.138 0.603-0.289 0.887-0.448 0.091-0.051 0.175-0.106 0.263-0.159 0.189-0.114 0.374-0.231 0.55-0.353zm0 4c0.094-0.066 0.184-0.134 0.275-0.202 0.161-0.121 0.314-0.246 0.462-0.374 0.044-0.039 0.096-0.073 0.139-0.112-3e-3 0.055-8e-3 0.111-0.015 0.166-0.01 0.08-0.018 0.161-0.035 0.24-0.017 0.084-0.042 0.167-0.067 0.251-0.023 0.078-0.045 0.156-0.074 0.232-0.032 0.082-0.071 0.163-0.11 0.244-0.036 0.075-0.07 0.15-0.112 0.224-0.045 0.079-0.097 0.157-0.149 0.234-0.048 0.072-0.094 0.145-0.148 0.215-0.058 0.077-0.123 0.151-0.188 0.225-0.059 0.068-0.115 0.137-0.179 0.203-0.071 0.074-0.149 0.145-0.226 0.216-0.068 0.064-0.134 0.128-0.207 0.19-0.082 0.07-0.172 0.136-0.26 0.203-0.078 0.059-0.153 0.119-0.235 0.177-0.093 0.065-0.193 0.126-0.292 0.188-0.086 0.055-0.17 0.11-0.26 0.163-0.103 0.06-0.212 0.115-0.32 0.172-0.095 0.05-0.187 0.101-0.285 0.148-0.113 0.054-0.232 0.104-0.35 0.155-0.1 0.044-0.198 0.089-0.302 0.13-0.124 0.049-0.255 0.093-0.384 0.139-0.104 0.037-0.205 0.076-0.312 0.11-0.133 0.043-0.273 0.08-0.41 0.118-0.109 0.031-0.215 0.064-0.326 0.092-0.143 0.036-0.291 0.065-0.437 0.096-0.111 0.024-0.219 0.051-0.332 0.071-0.159 0.029-0.322 0.051-0.484 0.075-0.105 0.016-0.209 0.035-0.316 0.048-0.181 0.022-0.366 0.036-0.55 0.051-0.092 8e-3 -0.182 0.019-0.275 0.025-0.278 0.017-0.56 0.026-0.845 0.026-0.503 0-1.001-0.036-1.494-0.09-0.147-0.016-0.293-0.04-0.439-0.061-0.191-0.027-0.378-0.069-0.567-0.105v-1.944c0.07 0.011 0.141 0.015 0.211 0.025 0.27 0.04 0.542 0.073 0.815 0.098 0.113 0.011 0.225 0.023 0.338 0.031 0.377 0.028 0.755 0.046 1.136 0.046 0.409 0 0.81-0.018 1.206-0.047 0.128-9e-3 0.251-0.025 0.378-0.037 0.267-0.026 0.531-0.056 0.79-0.094 0.142-0.021 0.281-0.046 0.42-0.07 0.24-0.043 0.476-0.09 0.708-0.144 0.136-0.031 0.27-0.062 0.403-0.097 0.24-0.062 0.472-0.132 0.703-0.206 0.112-0.036 0.226-0.068 0.335-0.106 0.32-0.112 0.632-0.232 0.93-0.364 0.012-5e-3 0.024-9e-3 0.036-0.014 0.309-0.138 0.603-0.289 0.887-0.448 0.091-0.051 0.175-0.106 0.263-0.159 0.189-0.114 0.374-0.231 0.55-0.353zm-12.174-0.283c-0.017 0.084-0.042 0.167-0.067 0.251-0.023 0.078-0.045 0.156-0.074 0.232-0.032 0.082-0.071 0.163-0.11 0.244-0.036 0.075-0.07 0.15-0.112 0.224-0.045 0.079-0.097 0.157-0.149 0.234-0.048 0.072-0.094 0.145-0.148 0.215-0.058 0.077-0.123 0.151-0.188 0.225-0.059 0.068-0.115 0.137-0.179 0.203-0.071 0.074-0.149 0.145-0.226 0.216-0.068 0.064-0.134 0.128-0.207 0.19-0.082 0.07-0.172 0.136-0.26 0.203-0.078 0.059-0.153 0.119-0.235 0.177-0.093 0.065-0.193 0.126-0.292 0.188-0.086 0.055-0.17 0.11-0.26 0.163-0.103 0.06-0.212 0.115-0.32 0.172-0.095 0.05-0.187 0.101-0.285 0.148-0.113 0.054-0.232 0.104-0.35 0.155-0.1 0.044-0.198 0.089-0.302 0.13-0.124 0.049-0.255 0.093-0.384 0.139-0.104 0.037-0.205 0.076-0.312 0.11-0.133 0.043-0.273 0.08-0.41 0.118-0.109 0.031-0.215 0.064-0.326 0.092-0.143 0.036-0.291 0.065-0.437 0.096-0.111 0.024-0.219 0.051-0.332 0.071-0.159 0.029-0.322 0.051-0.484 0.075-0.105 0.016-0.209 0.035-0.316 0.048-0.181 0.022-0.366 0.036-0.55 0.051-0.092 8e-3 -0.182 0.019-0.275 0.025-0.278 0.018-0.56 0.027-0.845 0.027s-0.567-9e-3 -0.846-0.026c-0.093-6e-3 -0.183-0.017-0.275-0.025-0.185-0.015-0.37-0.029-0.55-0.051-0.107-0.013-0.21-0.032-0.316-0.048-0.162-0.024-0.325-0.046-0.484-0.075-0.112-0.021-0.22-0.048-0.331-0.071-0.147-0.031-0.295-0.061-0.439-0.097-0.111-0.028-0.216-0.061-0.324-0.091-0.138-0.039-0.278-0.076-0.412-0.119-0.107-0.034-0.208-0.073-0.312-0.11-0.129-0.046-0.259-0.089-0.384-0.139-0.104-0.041-0.201-0.087-0.302-0.13-0.117-0.051-0.237-0.101-0.35-0.155-0.098-0.047-0.19-0.099-0.285-0.148-0.108-0.057-0.217-0.112-0.32-0.172-0.09-0.052-0.174-0.108-0.26-0.163-0.098-0.062-0.199-0.123-0.292-0.188-0.082-0.057-0.157-0.117-0.235-0.177-0.088-0.067-0.178-0.133-0.26-0.203-0.073-0.062-0.139-0.126-0.207-0.19-0.077-0.071-0.155-0.142-0.226-0.216-0.063-0.066-0.12-0.135-0.178-0.202-0.064-0.075-0.13-0.149-0.188-0.226-0.053-0.07-0.099-0.142-0.147-0.214-0.052-0.078-0.105-0.156-0.15-0.235-0.042-0.073-0.076-0.149-0.112-0.224-0.039-0.081-0.078-0.162-0.11-0.244-0.029-0.076-0.051-0.154-0.074-0.232-0.025-0.083-0.05-0.166-0.067-0.251-0.016-0.079-0.025-0.16-0.035-0.24-7e-3 -0.055-0.011-0.11-0.015-0.166 0.043 0.039 0.094 0.074 0.138 0.112 0.148 0.129 0.302 0.254 0.463 0.375 0.09 0.068 0.18 0.136 0.274 0.201 0.176 0.123 0.361 0.239 0.551 0.353 0.088 0.053 0.172 0.108 0.263 0.159 0.284 0.159 0.578 0.31 0.887 0.448 0.011 5e-3 0.022 8e-3 0.033 0.013 0.3 0.133 0.612 0.254 0.933 0.365 0.109 0.038 0.223 0.07 0.335 0.106 0.23 0.073 0.463 0.143 0.703 0.206 0.133 0.034 0.267 0.065 0.403 0.096 0.232 0.053 0.468 0.101 0.708 0.144 0.139 0.025 0.278 0.049 0.42 0.07 0.259 0.039 0.523 0.068 0.79 0.094 0.126 0.012 0.25 0.028 0.377 0.037 0.398 0.031 0.799 0.049 1.208 0.049s0.81-0.018 1.206-0.047c0.128-9e-3 0.251-0.025 0.378-0.037 0.267-0.026 0.531-0.056 0.79-0.094 0.142-0.021 0.281-0.046 0.42-0.07 0.24-0.043 0.476-0.09 0.708-0.144 0.136-0.031 0.27-0.062 0.403-0.097 0.24-0.062 0.472-0.132 0.703-0.206 0.112-0.036 0.226-0.068 0.335-0.106 0.32-0.112 0.632-0.232 0.93-0.364 0.012-5e-3 0.024-9e-3 0.036-0.014 0.309-0.138 0.603-0.289 0.887-0.448 0.091-0.051 0.175-0.106 0.263-0.159 0.189-0.114 0.374-0.23 0.55-0.352 0.094-0.066 0.184-0.134 0.275-0.202 0.161-0.121 0.314-0.246 0.462-0.374 0.044-0.039 0.096-0.073 0.139-0.112-3e-3 0.055-8e-3 0.111-0.015 0.166-0.01 0.078-0.019 0.158-0.035 0.238zm-19.741-3.649c-0.399 0.041-0.798 0.071-1.194 0.071-0.472 0-0.938-0.035-1.399-0.089-0.148-0.017-0.294-0.045-0.44-0.067-0.312-0.048-0.62-0.106-0.925-0.178-0.166-0.039-0.331-0.081-0.495-0.128-0.29-0.082-0.575-0.178-0.857-0.281-0.15-0.055-0.303-0.104-0.451-0.165-0.399-0.164-0.789-0.347-1.167-0.554-0.116-0.064-0.225-0.139-0.339-0.206-0.277-0.164-0.551-0.335-0.815-0.521-0.133-0.094-0.261-0.193-0.39-0.292-0.257-0.198-0.507-0.405-0.749-0.624-0.092-0.083-0.186-0.164-0.275-0.25-0.203-0.196-0.39-0.411-0.58-0.622l3.09-3.396c0.418-0.458 0.989-0.691 1.478-0.603 0.046 8e-3 0.092 0.018 0.138 0.03 0.151 0.118 0.476 0.416 0.698 0.621 0.545 0.503 0.901 0.821 1.189 1.015 0.565 1.088 1.348 1.52 1.929 1.688 0.704 0.204 1.495 0.141 2.359-0.171v4.601c-0.108 0.018-0.215 0.042-0.323 0.057-0.16 0.024-0.322 0.047-0.482 0.064zm-13.138-13.029c8e-3 -0.092 0.019-0.183 0.029-0.274 0.036-0.316 0.083-0.628 0.143-0.936 9e-3 -0.047 0.015-0.094 0.025-0.14 0.074-0.354 0.165-0.703 0.269-1.045 0.022-0.072 0.048-0.143 0.071-0.215 0.087-0.266 0.183-0.527 0.288-0.785 0.039-0.096 0.077-0.192 0.118-0.286 0.119-0.272 0.248-0.538 0.385-0.799 0.072-0.135 0.149-0.267 0.226-0.4 0.084-0.145 0.171-0.287 0.261-0.428 2e-3 -3e-3 5e-3 -7e-3 7e-3 -0.01l2.885 3.166c0.738 0.811 1.719 1.245 2.7 1.25 0.363-6e-3 0.719-0.067 1.057-0.184 0.415-0.144 0.693-0.472 0.987-0.819 0.496-0.581 0.892-0.995 1.493-0.995 0.993 0 1.948 0.371 2.689 1.045l1.07 1.101 0.502-1.42c0.24-0.298 1.368-0.692 2.058-0.77 0.389 1.047 1.076 3.568-0.146 5.992-0.069 0.045-0.139 0.089-0.206 0.135-0.123 0.084-0.237 0.172-0.354 0.26-0.102 0.077-0.206 0.152-0.303 0.232-0.111 0.092-0.213 0.189-0.317 0.284-0.09 0.083-0.183 0.163-0.267 0.249-0.099 0.1-0.187 0.205-0.278 0.309-0.077 0.087-0.158 0.173-0.229 0.263-0.086 0.108-0.16 0.221-0.237 0.333-0.063 0.091-0.131 0.18-0.188 0.273-0.073 0.119-0.133 0.242-0.196 0.363-4e-3 8e-3 -8e-3 0.015-0.012 0.023-0.995 0.652-1.863 0.938-2.389 0.783-0.121-0.035-0.486-0.14-0.804-0.889l-0.229-0.538-0.402-0.045c-0.211-0.158-0.624-0.539-0.885-0.779-0.697-0.641-0.993-0.906-1.325-1.018-0.172-0.058-0.346-0.102-0.521-0.132-1.181-0.208-2.415 0.252-3.301 1.227l-2.852 3.135c-2e-3 -3e-3 -5e-3 -6e-3 -7e-3 -9e-3 -0.083-0.131-0.164-0.264-0.243-0.399-0.088-0.15-0.174-0.3-0.255-0.452-0.133-0.253-0.258-0.509-0.372-0.772-0.043-0.097-0.081-0.196-0.121-0.294-0.103-0.255-0.199-0.514-0.285-0.777-0.024-0.073-0.05-0.146-0.073-0.22-0.104-0.342-0.195-0.689-0.269-1.043-0.01-0.047-0.016-0.095-0.025-0.142-0.06-0.307-0.107-0.62-0.143-0.935-0.01-0.091-0.021-0.182-0.029-0.274-0.033-0.362-0.056-0.728-0.056-1.099s0.023-0.737 0.056-1.1zm16.561 12.759c0.09 0.068 0.18 0.136 0.274 0.201 0.176 0.123 0.361 0.239 0.551 0.353 0.088 0.053 0.172 0.108 0.263 0.159 0.284 0.159 0.578 0.31 0.887 0.448 0.011 5e-3 0.022 8e-3 0.033 0.013 0.3 0.133 0.612 0.254 0.933 0.365 0.109 0.038 0.223 0.07 0.335 0.106 0.23 0.073 0.463 0.143 0.703 0.206 0.133 0.034 0.267 0.065 0.403 0.096 0.232 0.053 0.468 0.101 0.708 0.144 0.139 0.025 0.278 0.049 0.42 0.07 0.259 0.039 0.523 0.068 0.79 0.094 0.126 0.012 0.25 0.028 0.377 0.037 0.396 0.031 0.797 0.049 1.206 0.049s0.81-0.018 1.206-0.047c0.128-9e-3 0.251-0.025 0.378-0.037 0.267-0.026 0.531-0.056 0.79-0.094 0.142-0.021 0.281-0.046 0.42-0.07 0.24-0.043 0.476-0.09 0.708-0.144 0.136-0.031 0.27-0.062 0.403-0.097 0.24-0.062 0.472-0.132 0.703-0.206 0.112-0.036 0.226-0.068 0.335-0.106 0.32-0.112 0.632-0.232 0.93-0.364 0.012-5e-3 0.024-9e-3 0.036-0.014 0.309-0.138 0.603-0.289 0.887-0.448 0.091-0.051 0.175-0.106 0.263-0.159 0.189-0.114 0.374-0.23 0.55-0.352 0.094-0.066 0.184-0.134 0.275-0.202 0.161-0.121 0.314-0.246 0.462-0.374 0.044-0.039 0.096-0.073 0.139-0.112-3e-3 0.055-8e-3 0.111-0.015 0.166-0.01 0.08-0.018 0.161-0.035 0.24-0.017 0.084-0.042 0.167-0.067 0.251-0.023 0.078-0.045 0.156-0.074 0.232-0.032 0.082-0.071 0.163-0.11 0.244-0.036 0.075-0.07 0.15-0.112 0.224-0.045 0.079-0.097 0.157-0.149 0.234-0.048 0.072-0.094 0.145-0.148 0.215-0.058 0.077-0.123 0.151-0.188 0.225-0.059 0.068-0.115 0.137-0.179 0.203-0.071 0.074-0.149 0.145-0.226 0.216-0.068 0.064-0.134 0.128-0.207 0.19-0.082 0.07-0.172 0.136-0.26 0.203-0.078 0.059-0.153 0.119-0.235 0.177-0.093 0.065-0.193 0.126-0.292 0.188-0.086 0.055-0.17 0.11-0.26 0.163-0.103 0.06-0.212 0.115-0.32 0.172-0.095 0.05-0.187 0.101-0.285 0.148-0.113 0.054-0.232 0.104-0.35 0.155-0.1 0.044-0.198 0.089-0.302 0.13-0.124 0.049-0.255 0.093-0.384 0.139-0.104 0.037-0.205 0.076-0.312 0.11-0.133 0.043-0.273 0.08-0.41 0.118-0.109 0.031-0.215 0.064-0.326 0.092-0.143 0.036-0.291 0.065-0.437 0.096-0.111 0.024-0.219 0.051-0.332 0.071-0.159 0.029-0.322 0.051-0.484 0.075-0.105 0.016-0.209 0.035-0.316 0.048-0.181 0.022-0.366 0.036-0.55 0.051-0.092 8e-3 -0.182 0.019-0.275 0.025-0.278 0.016-0.56 0.025-0.845 0.025s-0.567-9e-3 -0.846-0.026c-0.093-6e-3 -0.183-0.017-0.275-0.025-0.185-0.015-0.37-0.029-0.55-0.051-0.107-0.013-0.21-0.032-0.316-0.048-0.162-0.024-0.325-0.046-0.484-0.075-0.112-0.021-0.22-0.048-0.331-0.071-0.147-0.031-0.295-0.061-0.439-0.097-0.111-0.028-0.216-0.061-0.324-0.091-0.138-0.039-0.278-0.076-0.412-0.119-0.107-0.034-0.208-0.073-0.312-0.11-0.129-0.046-0.259-0.089-0.384-0.139-0.104-0.041-0.201-0.087-0.302-0.13-0.117-0.051-0.237-0.101-0.35-0.155-0.098-0.047-0.19-0.099-0.285-0.148-0.108-0.057-0.217-0.112-0.32-0.172-0.09-0.052-0.174-0.108-0.26-0.163-0.098-0.062-0.199-0.123-0.292-0.188-0.082-0.057-0.157-0.117-0.235-0.177-0.088-0.067-0.178-0.133-0.26-0.203-0.073-0.062-0.139-0.126-0.207-0.19-0.077-0.071-0.155-0.142-0.226-0.216-0.063-0.066-0.12-0.135-0.178-0.202-0.064-0.075-0.13-0.149-0.188-0.226-0.053-0.07-0.099-0.142-0.147-0.214-0.052-0.078-0.105-0.156-0.15-0.235-0.042-0.073-0.076-0.149-0.112-0.224-0.039-0.081-0.078-0.162-0.11-0.244-0.029-0.076-0.051-0.154-0.074-0.232-0.025-0.083-0.05-0.166-0.067-0.251-0.016-0.079-0.025-0.16-0.035-0.24-7e-3 -0.055-0.011-0.11-0.015-0.166 0.043 0.039 0.094 0.074 0.138 0.112 0.15 0.129 0.304 0.254 0.465 0.375zm6.575-11.602c-0.185 0.015-0.367 0.034-0.548 0.054-0.162 0.019-0.324 0.038-0.484 0.061-0.178 0.026-0.353 0.056-0.527 0.088-0.156 0.029-0.312 0.057-0.465 0.091-0.171 0.037-0.338 0.078-0.504 0.121-0.149 0.038-0.298 0.076-0.443 0.118-0.163 0.047-0.322 0.099-0.48 0.152-0.017 6e-3 -0.035 0.011-0.053 0.017 0.678-3.266-0.726-6.071-0.8-6.216l-0.196-0.382-0.412-0.121c-0.859-0.251-2.836 0.118-4.011 0.934-0.968-0.633-2.1-0.974-3.269-0.974-1.573 0-2.514 1.108-3.018 1.704-0.082 0.096-0.151 0.185-0.218 0.252-0.105 0.027-0.218 0.042-0.333 0.043-0.429-0.015-0.838-0.211-1.189-0.597l-3.122-3.426c0.19-0.211 0.376-0.426 0.579-0.621 0.089-0.086 0.183-0.167 0.275-0.25 0.241-0.219 0.492-0.426 0.749-0.624 0.129-0.099 0.257-0.198 0.39-0.292 0.264-0.186 0.537-0.357 0.815-0.521 0.114-0.067 0.223-0.143 0.339-0.206 0.378-0.206 0.768-0.389 1.167-0.554 0.147-0.061 0.3-0.11 0.451-0.165 0.282-0.103 0.567-0.199 0.857-0.281 0.164-0.046 0.329-0.088 0.495-0.128 0.305-0.072 0.613-0.13 0.925-0.178 0.147-0.023 0.292-0.05 0.44-0.067 0.46-0.054 0.926-0.089 1.398-0.089s0.938 0.035 1.399 0.089c0.148 0.017 0.294 0.045 0.44 0.067 0.312 0.048 0.62 0.106 0.925 0.178 0.166 0.039 0.331 0.081 0.495 0.128 0.29 0.082 0.575 0.178 0.857 0.281 0.15 0.055 0.303 0.104 0.451 0.165 0.399 0.164 0.789 0.347 1.167 0.554 0.116 0.064 0.225 0.139 0.339 0.206 0.277 0.164 0.551 0.335 0.815 0.521 0.133 0.094 0.261 0.193 0.39 0.292 0.257 0.198 0.507 0.405 0.749 0.624 0.092 0.083 0.186 0.164 0.275 0.25 0.685 0.662 1.302 1.409 1.828 2.238 1.177 1.856 1.87 4.05 1.87 6.407v7e-3c-0.104 3e-3 -0.204 0.014-0.308 0.019-0.168 8e-3 -0.334 0.018-0.5 0.031zm-21.192 9.73c0.013 0.014 0.029 0.025 0.042 0.038 0.35 0.354 0.716 0.691 1.102 1.007 0.136 0.112 0.281 0.209 0.421 0.315 0.255 0.193 0.511 0.384 0.779 0.56 0.186 0.122 0.377 0.233 0.569 0.346 0.24 0.142 0.483 0.279 0.733 0.406 0.202 0.103 0.405 0.202 0.612 0.295 0.258 0.117 0.521 0.222 0.787 0.323 0.205 0.078 0.409 0.158 0.618 0.226 0.295 0.097 0.598 0.175 0.902 0.252 0.188 0.048 0.372 0.105 0.562 0.145 0.48 0.1 0.967 0.178 1.463 0.228 0.164 0.016 0.331 0.015 0.496 0.025 0.303 0.02 0.605 0.047 0.914 0.047 0.048 0 0.098-8e-3 0.147-9e-3 0.277-3e-3 0.556-0.031 0.835-0.051 0.26-0.019 0.519-0.032 0.782-0.067 0.079-0.01 0.158-9e-3 0.237-0.02v8.147h-6.019c-0.244-3.187-2.795-5.737-5.981-5.981v-6.232zm34-36.787v15.076c-0.339 0.031-0.673 0.072-1 0.124v-15.2zm-3 0v15.661c-0.345 0.107-0.678 0.225-1 0.355v-16.016zm-3 0v17.059c-0.365 0.246-0.694 0.514-1 0.795v-17.854zm-33 54v-54h30v27.2h-3e-3c-0.328-0.052-0.661-0.092-1.001-0.124 1e-3 -0.026 4e-3 -0.05 4e-3 -0.076 0-2.624-0.739-5.073-2-7.174v-10.947l-1.092 0.1c-0.135 0.012-0.27 0.021-0.408 0.021-2.481 0-4.5-2.019-4.5-4.5 0-0.139 0.01-0.276 0.021-0.412l0.097-1.088h-12.236l0.097 1.088c0.011 0.136 0.021 0.273 0.021 0.412 0 2.481-2.019 4.5-4.5 4.5-0.138 0-0.273-9e-3 -0.408-0.021l-1.092-0.1v10.947c-0.013 0.022-0.027 0.045-0.041 0.067-0.133 0.224-0.263 0.449-0.384 0.681-0.155 0.296-0.302 0.595-0.434 0.9-0.049 0.112-0.089 0.228-0.135 0.342-0.117 0.29-0.226 0.582-0.322 0.879-0.04 0.125-0.076 0.251-0.113 0.377-0.086 0.294-0.163 0.59-0.229 0.89-0.03 0.133-0.059 0.266-0.084 0.4-0.059 0.31-0.105 0.622-0.143 0.937-0.015 0.126-0.035 0.249-0.047 0.376-0.042 0.438-0.068 0.879-0.068 1.325s0.026 0.887 0.067 1.325c0.012 0.127 0.032 0.25 0.047 0.376 0.038 0.315 0.084 0.627 0.143 0.937 0.026 0.134 0.055 0.267 0.084 0.4 0.066 0.3 0.143 0.596 0.229 0.89 0.037 0.126 0.073 0.252 0.113 0.377 0.096 0.297 0.206 0.589 0.322 0.879 0.046 0.114 0.086 0.23 0.135 0.342 0.132 0.305 0.28 0.604 0.434 0.9 0.12 0.232 0.251 0.457 0.384 0.681 0.015 0.023 0.029 0.045 0.042 0.067v10.947l1.092-0.1c0.135-0.012 0.27-0.021 0.408-0.021 2.481 0 4.5 2.019 4.5 4.5 0 0.139-0.01 0.276-0.021 0.412l-0.097 1.088h8.226c0.018 0.084 0.04 0.167 0.062 0.25 0.026 0.101 0.053 0.201 0.086 0.3 0.027 0.081 0.059 0.16 0.09 0.24 0.308 0.805 0.812 1.551 1.491 2.21zm22.375-0.048c-0.1-0.045-0.198-0.092-0.294-0.139-0.137-0.068-0.273-0.137-0.403-0.21-0.087-0.049-0.168-0.1-0.251-0.151-0.234-0.142-0.453-0.292-0.657-0.449-0.069-0.053-0.144-0.104-0.209-0.159-0.092-0.077-0.174-0.157-0.259-0.237-0.08-0.075-0.16-0.151-0.233-0.228-0.071-0.075-0.137-0.152-0.202-0.229-0.076-0.091-0.147-0.183-0.213-0.277-0.049-0.069-0.099-0.139-0.143-0.209-0.076-0.123-0.142-0.248-0.201-0.374-0.022-0.046-0.049-0.09-0.068-0.137-0.073-0.175-0.13-0.353-0.17-0.533-0.01-0.046-0.012-0.094-0.02-0.14-0.017-0.101-0.026-0.204-0.032-0.306 0.042 0.038 0.092 0.072 0.135 0.11 0.148 0.129 0.302 0.254 0.463 0.375 0.09 0.068 0.18 0.136 0.274 0.201 0.176 0.123 0.361 0.239 0.551 0.353 0.088 0.053 0.172 0.108 0.263 0.159 0.284 0.159 0.578 0.31 0.887 0.448 0.011 5e-3 0.022 8e-3 0.033 0.013 0.3 0.133 0.612 0.254 0.933 0.365 0.109 0.038 0.223 0.07 0.335 0.106 0.23 0.073 0.463 0.143 0.703 0.206 0.133 0.034 0.267 0.065 0.403 0.096 0.232 0.053 0.468 0.101 0.708 0.144 0.139 0.025 0.278 0.049 0.42 0.07 0.259 0.039 0.523 0.068 0.79 0.094 0.126 0.012 0.25 0.028 0.377 0.037 0.395 0.031 0.796 0.049 1.205 0.049s0.81-0.018 1.206-0.047c0.128-9e-3 0.251-0.025 0.378-0.037 0.267-0.026 0.531-0.056 0.79-0.094 0.142-0.021 0.281-0.046 0.42-0.07 0.24-0.043 0.476-0.09 0.708-0.144 0.136-0.031 0.27-0.062 0.403-0.097 0.24-0.062 0.472-0.132 0.703-0.206 0.112-0.036 0.226-0.068 0.335-0.106 0.32-0.112 0.632-0.232 0.93-0.364 0.012-5e-3 0.024-9e-3 0.036-0.014 0.309-0.138 0.603-0.289 0.887-0.448 0.091-0.051 0.175-0.106 0.263-0.159 0.189-0.114 0.374-0.23 0.55-0.352 0.094-0.066 0.184-0.134 0.275-0.202 0.161-0.121 0.314-0.246 0.462-0.374 0.043-0.038 0.093-0.071 0.135-0.11-7e-3 0.103-0.014 0.207-0.033 0.312-4e-3 0.026-6e-3 0.052-0.011 0.077-0.039 0.179-0.095 0.361-0.171 0.549l-2e-3 5e-3c-0.27 0.665-0.775 1.291-1.476 1.843l-0.06 0.045c-0.211 0.162-0.44 0.317-0.685 0.465-0.049 0.03-0.094 0.062-0.145 0.09l-0.021 0.012c-1.54 0.878-3.623 1.426-5.877 1.426-1.907 0-3.688-0.396-5.125-1.048zm18.125 1.048c-1.63 0-3.198-0.281-4.556-0.803 0.522-0.47 0.961-0.985 1.293-1.539 0.018 4e-3 0.036 5e-3 0.054 9e-3 0.462 0.098 0.933 0.171 1.409 0.225 0.105 0.012 0.21 0.021 0.315 0.031 0.49 0.046 0.984 0.077 1.485 0.077 0.409 0 0.81-0.018 1.206-0.047 0.128-9e-3 0.251-0.025 0.378-0.037 0.267-0.026 0.531-0.056 0.79-0.094 0.142-0.021 0.281-0.046 0.42-0.07 0.24-0.043 0.476-0.09 0.708-0.144 0.136-0.031 0.27-0.062 0.403-0.097 0.24-0.062 0.472-0.132 0.703-0.206 0.112-0.036 0.226-0.068 0.335-0.106 0.32-0.112 0.632-0.232 0.93-0.364 0.012-5e-3 0.024-9e-3 0.036-0.014 0.309-0.138 0.603-0.289 0.887-0.448 0.091-0.051 0.175-0.106 0.263-0.159 0.189-0.114 0.374-0.23 0.55-0.352 0.094-0.066 0.184-0.134 0.275-0.202 0.161-0.121 0.314-0.246 0.462-0.374 0.048-0.042 0.103-0.079 0.149-0.121-0.152 2.637-3.98 4.835-8.495 4.835z"/>
</svg>
