<?xml version="1.0" encoding="UTF-8" standalone="no"?>
<!DOCTYPE svg PUBLIC "-//W3C//DTD SVG 20010904//EN"
              "http://www.w3.org/TR/2001/REC-SVG-20010904/DTD/svg10.dtd">

<svg xmlns="http://www.w3.org/2000/svg"
     width="1.92in" height="1.92in"
     viewBox="0 0 576 576">
  <path id="Apex"
        fill="#000000"
        d="M 331.45,308.52
           C 331.45,308.52 323.68,300.78 323.68,300.78
             323.68,300.78 320.27,266.00 320.27,266.00
             320.27,266.00 303.16,249.02 303.16,249.02
             303.16,249.02 302.51,279.67 302.51,279.67
             302.51,279.67 295.21,272.39 295.21,272.39
             295.21,272.39 296.08,39.05 296.08,39.05
             296.08,39.05 311.52,53.83 311.52,53.83
             311.52,53.83 331.45,308.52 331.45,308.52 Z
           M 317.14,234.67
           C 317.14,234.67 306.41,124.50 306.41,124.50
             306.41,124.50 303.98,221.68 303.98,221.68
             303.98,221.68 317.14,234.67 317.14,234.67 Z
           M 388.24,246.39
           C 381.84,272.39 375.77,285.55 369.51,289.22
             365.87,291.38 362.15,290.48 358.23,286.61
             357.87,286.25 357.54,285.93 357.25,285.64
             356.97,285.36 356.72,285.12 356.52,284.92
             356.52,284.92 345.67,274.19 345.67,274.19
             345.67,274.19 341.32,318.37 341.32,318.37
             341.32,318.37 334.22,311.29 334.22,311.29
             334.22,311.29 347.70,88.47 347.70,88.47
             347.70,88.47 380.55,119.93 380.55,119.93
             391.97,130.86 397.92,149.00 398.33,172.37
             398.70,193.42 394.97,219.05 388.24,246.39 Z
           M 375.98,234.40
           C 378.65,220.52 379.68,209.16 378.85,201.17
             377.99,192.85 375.37,186.44 371.02,182.23
             371.02,182.23 356.16,167.82 356.16,167.82
             356.16,167.82 348.60,244.47 348.60,244.47
             348.60,244.47 360.72,256.39 360.72,256.39
             366.90,262.47 371.84,255.94 375.98,234.40 Z
           M 396.14,373.03
           C 396.14,373.03 383.81,360.74 383.81,360.74
             378.78,355.71 375.94,348.56 375.27,338.70
             374.45,326.97 376.71,310.54 383.07,286.73
             392.64,250.88 404.02,220.22 416.10,201.88
             428.45,182.99 441.18,177.98 452.83,189.14
             452.83,189.14 478.72,213.93 478.72,213.93
             478.72,213.93 453.61,262.30 453.61,262.30
             453.61,262.30 432.12,241.46 432.12,241.46
             427.38,236.87 421.97,238.38 416.19,245.60
             410.80,252.33 405.46,263.93 400.39,279.20
             400.39,279.20 429.84,308.09 429.84,308.09
             429.84,308.09 417.32,332.22 417.32,332.22
             417.32,332.22 391.13,306.37 391.13,306.37
             387.07,318.66 385.34,327.51 385.58,333.72
             385.76,338.81 387.32,342.75 390.28,345.68
             390.28,345.68 403.51,358.83 403.51,358.83
             403.51,358.83 396.14,373.03 396.14,373.03 Z
           M 431.32,408.11
           C 431.32,408.11 422.62,399.44 422.62,399.44
             422.62,399.44 436.06,364.08 436.06,364.08
             436.06,364.08 407.24,384.10 407.24,384.10
             407.24,384.10 398.67,375.55 398.67,375.55
             398.67,375.55 442.75,341.65 442.75,341.65
             442.75,341.65 485.01,219.95 485.01,219.95
             485.01,219.95 503.19,237.36 503.19,237.36
             503.19,237.36 467.25,321.45 467.25,321.45
             467.25,321.45 534.47,267.31 534.47,267.31
             534.47,267.31 552.73,284.79 552.73,284.79
             552.73,284.79 455.41,351.35 455.41,351.35
             455.41,351.35 431.32,408.11 431.32,408.11 Z" />
  <path id="Extruder"
        fill="#000000"
        d="M 273.13,317.00
           C 277.88,316.99 296.86,316.98 302.06,316.98
             305.27,320.54 304.12,319.63 311.25,326.75
             311.25,326.75 340.25,355.75 340.25,355.75
             342.38,357.89 349.97,365.29 351.99,367.00
             352.00,369.02 352.00,372.90 352.00,375.00
             352.00,375.00 352.00,406.00 352.00,406.00
             352.00,408.26 351.99,416.32 352.00,418.00
             353.64,418.00 358.23,418.00 360.00,418.00
             360.00,418.00 396.00,418.00 396.00,418.00
             402.06,418.00 401.00,418.00 402.99,418.00
             403.00,420.39 403.00,436.18 402.99,437.99
             401.02,438.00 393.19,438.00 389.76,438.00
             389.76,438.00 376.25,451.25 376.25,451.25
             376.25,451.25 323.25,504.25 323.25,504.25
             323.25,504.25 304.25,523.25 304.25,523.25
             302.72,524.77 298.18,529.75 296.48,530.31
             293.60,531.24 291.42,528.68 286.15,529.18
             282.92,529.49 280.85,531.06 278.52,530.31
             276.89,529.77 273.16,525.65 271.75,524.25
             271.75,524.25 257.75,510.25 257.75,510.25
             257.75,510.25 196.75,449.25 196.75,449.25
             196.75,449.25 185.53,438.00 185.53,438.00
             182.76,438.00 173.93,438.00 172.00,438.00
             172.00,436.48 172.00,420.42 172.00,418.00
             173.59,418.00 172.97,418.01 180.00,418.00
             180.00,418.00 210.00,418.00 210.00,418.00
             212.26,418.00 220.20,418.00 222.00,418.00
             222.00,416.62 222.00,411.75 222.00,410.00
             222.00,410.00 222.00,376.00 222.00,376.00
             222.00,373.90 222.00,369.86 222.00,368.00
             224.11,366.00 231.62,358.89 233.75,356.75
             233.75,356.75 259.75,330.75 259.75,330.75
             259.75,330.75 273.13,317.00 273.13,317.00 Z" />
  <path id="Contour"
        fill="none" stroke="black" stroke-width="1"
        d="M 1.06,283.63
           C 1.06,283.63 282.17,1.90 282.17,1.90
             282.17,1.90 284.00,1.07 284.00,1.07
             284.00,1.07 291.87,0.96 291.87,0.96
             291.87,0.96 293.92,1.96 293.92,1.96
             293.92,1.96 574.06,281.92 574.06,281.92
             574.06,281.92 575.00,284.06 575.00,284.06
             575.00,284.06 575.04,291.98 575.04,291.98
             575.04,291.98 574.06,294.04 574.06,294.04
             574.06,294.04 293.99,574.04 293.99,574.04
             293.99,574.04 292.01,575.01 292.01,575.01
             292.01,575.01 284.00,575.01 284.00,575.01
             284.00,575.01 281.94,573.98 281.94,573.98
             281.94,573.98 1.97,294.02 1.97,294.02
             1.97,294.02 0.95,291.99 0.95,291.99
             0.95,291.99 1.06,283.63 1.06,283.63 Z
           M 15.96,287.95
           C 15.96,287.95 287.93,15.99 287.93,15.99
             287.93,15.99 559.94,288.00 559.94,288.00
             559.94,288.00 429.47,418.98 429.47,418.98
             429.47,418.98 293.86,283.02 293.86,283.02
             293.86,283.02 291.88,282.01 291.88,282.01
             291.88,282.01 284.01,281.99 284.01,281.99
             284.01,281.99 281.95,282.99 281.95,282.99
             281.95,282.99 146.45,418.96 146.45,418.96
             146.45,418.96 15.96,287.95 15.96,287.95 Z
           M 287.92,296.99
           C 287.92,296.99 419.94,428.55 419.94,428.55
             419.94,428.55 288.08,559.97 288.08,559.97
             288.08,559.97 156.00,428.43 156.00,428.43
             156.00,428.43 287.92,296.99 287.92,296.99 Z" />
  <path id="Cre"
        fill="#000000"
        d="M 181.49,364.66
           C 181.49,364.66 163.91,381.56 163.91,381.56
             156.74,388.45 149.05,391.25 140.39,389.90
             130.22,388.35 118.24,380.89 103.19,365.75
             85.64,348.10 72.09,329.68 64.63,311.73
             54.54,287.52 56.33,266.42 71.30,251.31
             71.30,251.31 101.87,220.47 101.87,220.47
             101.87,220.47 123.50,259.65 123.50,259.65
             123.50,259.65 96.71,286.32 96.71,286.32
             89.26,293.74 88.60,304.66 94.28,318.12
             98.31,327.59 105.66,338.48 115.61,350.18
             115.61,350.18 120.12,355.49 120.12,355.49
             126.86,363.41 132.21,368.29 136.47,370.54
             143.20,374.11 149.19,373.11 154.77,367.72
             154.77,367.72 173.29,349.81 173.29,349.81
             173.29,349.81 181.49,364.66 181.49,364.66 Z
           M 235.39,312.82
           C 235.39,312.82 223.73,324.03 223.73,324.03
             223.73,324.03 197.84,290.17 197.84,290.17
             197.84,290.17 182.47,305.14 182.47,305.14
             182.47,305.14 199.71,347.13 199.71,347.13
             199.71,347.13 189.38,357.06 189.38,357.06
             189.38,357.06 115.88,206.34 115.88,206.34
             115.88,206.34 162.38,159.42 162.38,159.42
             172.93,148.78 182.46,147.86 190.53,156.26
             198.96,164.93 205.98,183.63 211.37,209.65
             214.60,225.26 215.96,237.75 215.67,247.78
             215.38,258.47 213.33,267.01 209.59,273.73
             209.59,273.73 235.39,312.82 235.39,312.82 Z
           M 196.13,225.03
           C 193.27,214.25 190.00,207.62 186.38,205.64
             182.68,203.62 178.09,205.28 172.69,210.66
             172.69,210.66 152.20,231.06 152.20,231.06
             152.20,231.06 172.50,280.54 172.50,280.54
             172.50,280.54 189.91,263.46 189.91,263.46
             194.47,258.99 197.26,255.04 198.30,251.59
             200.01,245.87 199.35,237.21 196.13,225.03 Z
           M 281.54,268.44
           C 281.54,268.44 263.21,286.06 263.21,286.06
             255.74,293.25 249.45,294.59 244.07,289.87
             237.73,284.38 232.35,270.05 227.76,243.97
             221.15,206.46 218.73,170.21 222.11,140.11
             225.38,110.30 234.53,86.62 249.31,71.71
             249.31,71.71 282.27,38.45 282.27,38.45
             282.27,38.45 282.07,101.71 282.07,101.71
             282.07,101.71 253.45,130.22 253.45,130.22
             247.16,136.48 242.90,146.84 240.76,160.69
             238.74,173.78 238.87,189.46 240.92,206.88
             240.92,206.88 281.86,166.65 281.86,166.65
             281.86,166.65 281.75,203.06 281.75,203.06
             281.75,203.06 244.45,239.43 244.45,239.43
             246.23,254.38 248.69,262.96 251.87,266.15
             254.48,268.82 257.91,268.03 262.23,263.85
             262.23,263.85 281.61,245.12 281.61,245.12
             281.61,245.12 281.54,268.44 281.54,268.44 Z" />
</svg>
