<?xml version="1.0" encoding="UTF-8" standalone="no"?>
<!DOCTYPE svg PUBLIC "-//W3C//DTD SVG 20010904//EN"
              "http://www.w3.org/TR/2001/REC-SVG-20010904/DTD/svg10.dtd">

<svg xmlns="http://www.w3.org/2000/svg"
     width="144.51mm" height="120.802mm"
     viewBox="0 0 512 428">
  <path id="Selection"
        fill="black"
        d="M 359.00,386.00 C 359.00,386.00 308.00,386.00 308.00,386.00 305.66,386.00 302.26,385.80 300.22,387.02 297.79,388.48 296.84,391.56 295.69,394.00 293.61,398.44 291.00,402.90 288.30,407.00 282.77,415.44 273.47,424.98 263.17,427.23 260.78,427.52 256.70,427.45 254.17,427.23 246.41,427.32 246.25,426.06 240.00,426.03 240.00,426.03 213.94,427.15 213.94,427.15 213.94,427.15 159.94,427.15 159.94,427.15 159.94,427.15 148.00,426.62 148.00,426.62 118.26,424.54 88.59,419.89 60.00,411.28 40.85,405.51 10.01,391.43 2.12,371.90 0.14,366.99 0.58,360.22 0.64,354.90 0.81,341.01 12.01,330.28 23.00,323.24 26.81,320.80 38.19,315.83 39.98,312.79 41.20,310.71 41.00,307.38 41.00,305.00 41.00,305.00 41.00,208.00 41.00,208.00 41.00,205.73 41.22,202.34 39.98,200.39 38.59,198.20 27.13,192.56 24.00,190.56 12.68,183.36 1.03,172.34 0.85,158.00 0.80,153.38 0.45,146.21 1.98,142.00 7.91,125.79 28.97,114.15 44.00,107.72 66.63,98.03 98.48,91.92 123.00,88.72 123.00,88.72 165.00,85.00 165.00,85.00 165.00,85.00 190.00,85.00 190.00,85.00 192.77,84.99 196.34,85.31 198.57,83.40 200.78,81.52 201.42,77.70 202.15,75.00 202.15,75.00 207.67,56.00 207.67,56.00 213.66,38.02 226.93,8.12 246.06,1.55 249.74,0.30 253.24,0.41 257.06,0.45 272.95,0.63 282.37,11.52 290.31,24.00 292.49,27.44 297.82,39.46 300.27,40.98 302.26,42.21 305.70,42.00 308.00,42.00 308.00,42.00 394.00,42.00 394.00,42.00 403.72,41.82 401.84,36.35 409.69,24.00 417.67,11.46 426.24,0.62 442.24,0.43 445.11,0.40 448.47,0.31 451.24,1.04 460.67,3.54 470.65,13.15 475.91,21.00 488.66,40.03 495.63,65.80 500.65,88.00 505.33,108.68 511.31,151.31 511.34,171.95 511.34,171.95 511.34,215.95 511.34,215.95 511.34,215.95 511.34,255.95 511.34,255.95 511.30,278.57 503.98,328.68 498.12,351.00 493.01,370.46 486.98,390.10 475.77,407.00 470.43,415.04 460.87,424.84 451.04,427.16 448.77,427.46 444.49,427.38 442.04,427.16 426.99,427.15 415.58,413.97 408.45,402.00 406.47,398.67 402.28,388.72 399.61,387.02 397.33,385.57 389.92,385.95 387.00,386.00 376.83,386.19 379.22,391.51 376.05,399.00 374.73,402.10 371.85,406.42 369.68,409.00 360.81,419.51 348.98,422.56 336.00,424.42 331.82,425.02 327.97,425.39 324.02,423.43 317.91,420.40 316.37,413.19 321.28,408.28 325.03,404.52 332.82,404.71 338.00,403.86 348.47,402.13 356.46,396.69 359.00,386.00 Z M 277.00,42.00 C 274.28,33.40 263.90,16.38 253.00,19.65 248.53,20.99 244.47,25.36 241.76,29.00 231.61,42.63 222.53,72.11 218.65,89.00 210.85,122.97 207.05,158.20 207.00,193.00 207.00,193.00 206.00,209.00 206.00,209.00 206.00,209.00 206.00,219.00 206.00,219.00 206.00,219.00 207.00,235.00 207.00,235.00 207.04,260.88 209.83,292.51 214.42,318.00 218.69,341.68 227.13,377.17 240.52,397.00 243.68,401.69 248.13,407.30 254.00,408.43 264.70,410.50 274.33,394.88 276.00,386.00 276.00,386.00 261.00,386.00 261.00,386.00 248.05,385.84 245.71,377.85 242.00,367.00 235.73,348.64 231.62,331.11 228.41,312.00 225.13,292.42 222.83,272.81 221.96,253.00 221.96,253.00 221.00,240.00 221.00,240.00 221.00,240.00 221.00,187.00 221.00,187.00 221.00,187.00 222.00,176.00 222.00,176.00 222.00,176.00 222.00,167.00 222.00,167.00 223.43,147.42 225.95,127.25 229.80,108.00 232.58,94.08 236.93,74.13 241.69,61.00 243.76,55.32 246.73,47.10 252.02,43.85 256.69,40.99 271.02,42.00 277.00,42.00 Z M 443.00,19.42 C 434.12,21.31 428.69,29.43 424.64,37.00 415.91,53.32 410.26,72.02 406.12,90.00 400.59,113.99 397.60,138.49 395.91,163.00 395.91,163.00 395.00,173.00 395.00,173.00 395.00,173.00 394.00,195.00 394.00,195.00 394.00,195.00 394.00,233.00 394.00,233.00 394.00,233.00 395.00,249.00 395.00,249.00 395.09,269.09 399.25,304.11 403.20,324.00 407.78,347.03 413.71,370.15 424.78,391.00 428.40,397.81 435.99,409.72 445.00,408.38 453.27,407.15 458.41,398.67 462.14,392.00 470.98,376.19 477.66,354.73 481.58,337.00 487.46,310.35 490.85,283.22 492.04,256.00 492.04,256.00 493.11,243.00 493.11,243.00 493.11,243.00 493.11,214.00 493.11,214.00 493.11,214.00 493.11,204.00 493.11,204.00 493.11,204.00 493.11,184.00 493.11,184.00 493.11,184.00 492.09,172.00 492.09,172.00 490.45,148.03 488.16,124.69 483.74,101.00 479.70,79.33 473.25,57.67 463.24,38.00 459.12,29.88 453.16,19.65 443.00,19.42 Z M 442.00,42.57 C 452.05,41.75 454.62,51.17 457.58,59.00 463.06,73.53 469.33,100.46 471.73,116.00 481.74,180.89 482.48,258.50 469.60,323.00 466.91,336.46 461.91,358.73 456.72,371.00 454.49,376.26 452.23,383.90 446.00,385.39 436.92,387.56 432.89,376.53 430.42,370.00 423.55,351.78 418.57,329.28 415.58,310.00 411.88,286.17 409.04,262.11 409.00,238.00 409.00,238.00 408.00,223.00 408.00,223.00 408.00,223.00 408.00,205.00 408.00,205.00 408.00,205.00 408.96,195.00 408.96,195.00 408.96,195.00 408.96,180.00 408.96,180.00 408.96,180.00 409.96,169.00 409.96,169.00 410.89,147.60 413.59,126.03 417.80,105.00 420.92,89.40 424.57,73.96 430.05,59.00 432.62,52.01 434.33,44.96 442.00,42.57 Z M 283.00,62.00 C 283.00,62.00 270.00,62.00 270.00,62.00 268.30,62.00 264.88,61.86 263.42,62.57 260.50,63.99 258.07,73.75 257.00,77.00 253.27,88.32 249.03,108.09 247.27,120.00 243.49,145.66 241.04,171.06 241.00,197.00 241.00,197.00 240.00,215.00 240.00,215.00 240.00,215.00 241.00,228.00 241.00,228.00 241.00,228.00 241.00,244.00 241.00,244.00 241.00,244.00 242.00,256.00 242.00,256.00 242.00,256.00 242.00,265.00 242.00,265.00 242.00,265.00 246.27,301.00 246.27,301.00 248.72,317.99 251.76,333.52 256.72,350.00 257.74,353.38 260.39,363.96 263.42,365.43 264.77,366.08 267.47,365.99 269.00,366.00 269.00,366.00 283.00,366.00 283.00,366.00 282.68,359.48 278.95,348.83 277.15,342.00 277.15,342.00 271.08,312.00 271.08,312.00 264.95,274.97 262.56,237.51 263.00,200.00 263.00,200.00 264.00,181.00 264.00,181.00 264.00,181.00 264.91,170.00 264.91,170.00 266.36,148.82 268.69,127.91 272.61,107.00 272.61,107.00 283.00,62.00 283.00,62.00 Z M 318.00,62.00 C 318.00,62.00 312.00,62.00 312.00,62.00 303.84,62.06 304.11,62.70 299.98,76.00 295.52,90.33 292.81,103.26 290.25,118.00 290.25,118.00 284.91,166.00 284.91,166.00 284.91,166.00 284.00,176.00 284.00,176.00 284.00,176.00 283.00,197.00 283.00,197.00 283.00,197.00 283.00,231.00 283.00,231.00 283.00,231.00 284.00,250.00 284.00,250.00 284.00,250.00 284.91,262.00 284.91,262.00 284.91,262.00 289.13,302.00 289.13,302.00 291.28,317.44 294.85,336.23 299.67,351.00 300.70,354.15 303.20,363.26 305.65,365.01 307.12,366.06 309.28,365.97 311.00,366.00 311.00,366.00 318.00,366.00 318.00,366.00 318.00,366.00 310.65,339.00 310.65,339.00 304.33,311.47 300.83,284.11 298.91,256.00 298.91,256.00 298.00,246.00 298.00,246.00 298.00,246.00 298.00,234.00 298.00,234.00 298.00,234.00 297.05,223.00 297.05,223.00 297.05,223.00 297.05,208.00 297.05,208.00 297.05,208.00 298.00,193.00 298.00,193.00 298.04,169.00 300.61,144.73 304.27,121.00 304.27,121.00 312.88,80.00 312.88,80.00 312.88,80.00 318.00,62.00 318.00,62.00 Z M 352.00,62.00 C 352.00,62.00 346.00,62.00 346.00,62.00 338.13,62.05 338.16,62.70 334.02,76.00 329.75,89.75 326.79,103.82 324.41,118.00 320.82,139.39 318.03,164.38 318.00,186.00 318.00,186.00 317.00,203.00 317.00,203.00 316.95,236.14 318.54,269.17 323.27,302.00 325.83,319.74 328.91,333.79 333.86,351.00 334.83,354.39 337.24,363.90 340.41,365.43 341.63,366.01 343.66,365.97 345.00,366.00 345.00,366.00 352.00,366.00 352.00,366.00 352.00,366.00 347.37,349.00 347.37,349.00 347.37,349.00 338.42,307.00 338.42,307.00 338.42,307.00 332.96,254.00 332.96,254.00 332.96,254.00 332.00,241.00 332.00,241.00 332.00,241.00 332.00,225.00 332.00,225.00 332.00,225.00 331.09,212.00 331.09,212.00 331.09,212.00 332.00,200.00 332.00,200.00 332.00,200.00 335.17,144.00 335.17,144.00 336.78,127.95 340.16,108.71 343.88,93.00 343.88,93.00 352.00,62.00 352.00,62.00 Z M 393.00,62.00 C 393.00,62.00 380.00,62.00 380.00,62.00 378.47,62.01 375.77,61.92 374.42,62.57 371.66,63.91 369.03,72.97 368.14,76.00 363.92,90.39 360.26,105.14 358.13,120.00 354.60,144.57 352.04,169.18 352.00,194.00 352.00,194.00 351.05,206.00 351.05,206.00 351.05,206.00 351.05,219.00 351.05,219.00 351.05,219.00 351.98,230.00 351.98,230.00 351.98,230.00 351.98,247.00 351.98,247.00 351.98,247.00 352.91,257.00 352.91,257.00 352.91,257.00 357.13,301.00 357.13,301.00 359.44,317.44 363.05,335.16 367.98,351.00 372.42,365.30 372.01,365.95 380.00,366.00 380.00,366.00 393.00,366.00 393.00,366.00 392.48,359.79 390.32,354.04 388.88,348.00 388.88,348.00 382.42,317.00 382.42,317.00 379.03,298.16 377.22,279.05 375.91,260.00 375.91,260.00 375.00,250.00 375.00,250.00 375.00,250.00 374.00,228.00 374.00,228.00 374.00,228.00 374.00,200.00 374.00,200.00 374.00,200.00 375.00,180.00 375.00,180.00 375.00,180.00 375.91,168.00 375.91,168.00 375.91,168.00 381.42,117.00 381.42,117.00 381.42,117.00 388.65,81.00 388.65,81.00 390.11,74.65 392.45,68.51 393.00,62.00 Z M 444.00,84.00 C 440.84,88.66 439.53,97.37 438.40,103.00 438.40,103.00 431.73,143.00 431.73,143.00 428.48,165.77 428.00,189.03 428.00,212.00 428.00,238.87 428.89,265.37 432.73,292.00 432.73,292.00 439.12,328.00 439.12,328.00 440.30,333.14 441.31,339.47 444.00,344.00 447.84,333.73 450.56,318.03 452.41,307.00 452.41,307.00 458.09,258.00 458.09,258.00 458.09,258.00 459.00,246.00 459.00,246.00 459.00,246.00 459.00,214.00 459.00,214.00 459.00,214.00 459.00,182.00 459.00,182.00 459.00,182.00 458.09,170.00 458.09,170.00 458.09,170.00 452.42,121.00 452.42,121.00 450.23,108.82 448.35,95.62 444.00,84.00 Z M 195.00,104.00 C 195.00,104.00 174.00,105.00 174.00,105.00 136.63,105.06 93.10,110.34 58.00,123.58 46.90,127.76 38.72,130.95 29.00,138.16 24.29,141.65 19.87,145.86 19.13,152.00 17.17,168.31 42.45,179.18 55.00,183.94 94.43,198.89 144.00,204.00 186.00,204.00 186.00,204.00 187.00,190.00 187.00,190.00 187.00,190.00 175.00,189.04 175.00,189.04 175.00,189.04 162.00,189.04 162.00,189.04 162.00,189.04 152.00,188.09 152.00,188.09 152.00,188.09 112.00,183.25 112.00,183.25 112.00,183.25 80.00,176.12 80.00,176.12 70.33,173.56 59.75,169.57 51.00,164.76 46.88,162.50 42.06,159.32 42.06,154.00 42.06,149.49 45.55,146.79 49.00,144.62 54.64,141.07 63.62,137.55 70.00,135.34 96.43,126.20 129.15,121.83 157.00,119.91 157.00,119.91 169.00,119.00 169.00,119.00 169.00,119.00 187.00,119.00 187.00,119.00 189.00,118.96 191.43,119.14 192.84,117.43 194.91,114.92 194.99,107.25 195.00,104.00 Z M 190.00,139.00 C 190.00,139.00 173.00,138.32 173.00,138.32 173.00,138.32 125.00,142.44 125.00,142.44 125.00,142.44 94.00,148.87 94.00,148.87 94.00,148.87 78.00,153.00 78.00,153.00 80.19,156.19 82.45,156.22 86.00,157.34 86.00,157.34 106.00,162.40 106.00,162.40 135.21,168.28 158.33,170.00 188.00,170.00 188.00,170.00 190.00,139.00 190.00,139.00 Z M 186.00,224.00 C 186.00,224.00 157.00,223.00 157.00,223.00 143.35,222.84 116.88,219.08 103.00,216.58 103.00,216.58 73.00,210.11 73.00,210.11 73.00,210.11 61.00,207.00 61.00,207.00 61.00,209.40 60.62,214.43 61.99,216.35 63.33,218.23 67.82,219.75 70.00,220.58 70.00,220.58 90.00,227.00 90.00,227.00 120.26,235.69 155.63,238.00 187.00,238.00 187.00,238.00 186.00,224.00 186.00,224.00 Z M 188.00,258.00 C 158.32,258.00 129.12,255.11 100.00,249.20 100.00,249.20 76.00,243.28 76.00,243.28 70.81,241.73 66.43,239.56 61.00,239.00 61.00,241.69 60.53,248.29 61.99,250.36 63.56,252.60 68.46,254.10 71.00,255.05 71.00,255.05 92.00,261.63 92.00,261.63 113.53,267.08 134.92,269.58 157.00,271.09 157.00,271.09 169.00,272.00 169.00,272.00 169.00,272.00 189.00,272.00 189.00,272.00 189.00,272.00 188.00,258.00 188.00,258.00 Z M 191.00,292.00 C 163.48,292.00 136.10,290.43 109.00,285.20 109.00,285.20 80.00,278.57 80.00,278.57 80.00,278.57 61.00,273.00 61.00,273.00 61.00,275.69 60.53,282.29 61.99,284.36 63.39,286.35 67.74,287.90 70.00,288.80 70.00,288.80 92.00,295.85 92.00,295.85 112.58,301.41 133.83,303.64 155.00,305.09 155.00,305.09 167.00,306.00 167.00,306.00 167.00,306.00 193.00,306.00 193.00,306.00 193.00,306.00 191.00,292.00 191.00,292.00 Z M 199.00,340.14 C 196.45,325.99 197.30,326.02 188.00,326.00 159.02,325.95 130.46,323.89 102.00,318.00 102.00,318.00 80.00,312.58 80.00,312.58 80.00,312.58 61.00,307.00 61.00,307.00 61.00,309.81 60.56,316.38 62.02,318.59 63.53,320.87 68.45,322.38 71.00,323.32 71.00,323.32 94.00,330.53 94.00,330.53 113.38,335.37 133.14,337.72 153.00,339.09 153.00,339.09 165.00,340.14 165.00,340.14 165.00,340.14 188.00,340.14 188.00,340.14 188.00,340.14 199.00,340.14 199.00,340.14 Z M 41.00,337.00 C 28.21,339.60 12.47,354.57 21.80,368.00 27.84,376.69 44.12,384.36 54.00,388.19 83.43,399.59 115.65,404.90 147.00,407.09 147.00,407.09 157.00,408.04 157.00,408.04 157.00,408.04 168.00,408.04 168.00,408.04 168.00,408.04 180.00,409.00 180.00,409.00 180.00,409.00 196.00,409.00 196.00,409.00 196.00,409.00 211.00,408.00 211.00,408.00 216.00,407.98 219.08,408.40 224.00,407.00 222.69,404.28 218.93,396.50 216.61,395.02 213.95,393.33 200.84,393.99 197.00,394.00 197.00,394.00 164.00,394.00 164.00,394.00 164.00,394.00 154.00,393.09 154.00,393.09 125.59,391.14 97.10,386.73 70.00,377.67 62.44,375.14 47.13,369.90 43.09,362.98 40.87,359.19 41.01,355.22 41.00,351.00 41.00,351.00 41.00,337.00 41.00,337.00 Z M 208.00,374.00 C 207.55,371.10 205.75,362.72 203.44,361.02 201.73,359.77 198.09,360.00 196.00,360.00 196.00,360.00 166.00,360.00 166.00,360.00 166.00,360.00 156.00,359.09 156.00,359.09 134.75,357.63 113.79,355.05 93.00,350.12 93.00,350.12 77.00,345.98 77.00,345.98 77.00,345.98 61.00,341.00 61.00,341.00 61.00,343.85 60.56,350.35 62.02,352.61 63.65,355.14 68.25,356.39 71.00,357.42 71.00,357.42 96.00,365.13 96.00,365.13 120.07,371.14 147.24,373.96 172.00,374.00 172.00,374.00 189.00,374.99 189.00,374.99 189.00,374.99 208.00,374.00 208.00,374.00 Z" />
</svg>
