<?xml version="1.0" encoding="UTF-8"?>
<svg id="FloppyDisk" width="511.93698" height="511.93698" version="1.1" viewBox="0 0 511.99998 511.99998" xmlns="http://www.w3.org/2000/svg">
	<path id="Background" fill="#4d5578" d="m491.02798 511.20213-377.32584 0.69409h-85.396558c-0.930728-3e-3 -1.944612 0.10553-2.71222-0.51174-0.965911-0.774-1.31773-2.29003-2.472345-2.82095l-2.49153-0.69086c-1.53842-0.62686-3.812461-2.13649-5.117397-3.17915-1.864652-1.48724-2.728212-3.11519-4.125902-4.95105l-2.9872803-3.5182-2.8657423-4.47768c-0.604495-0.89873-1.333724-1.9734-2.20368-2.62265-2.354004-1.7591-3.1631909 0.16313-3.1695869-3.77407v-464.400688c0.0064-4.480893 1.3145289-5.046998 3.1120169-8.635549 0.828376-1.650354 2.357199-5.4276045 3.4094653-6.7037445 1.487243-1.80707 3.8412473-2.68982 5.9521733-3.52139 3.546994-1.40088 3.943288-1.21546151 8.337853-1.22185151l43.795626-0.70674849c0.83158 0.016 1.47125 0.0192 2.23567 0.41898 1.55761 0.82197 4.58327 5.25489 5.2933 6.93723l1.17701 3.8380205c0.36461 1.122619 0.149391 4.254689 1.128091 4.830392 0.55652 0.326234 2.975419 0.274175 3.599099 0.28697h4.47772l5.1174 0.319834h9.275279l5.437238-0.319834h14.07284c4.1163-0.04798 4.79116-0.694044 4.86153-4.797532-0.064-0.85716-0.11195-2.4211505 0-3.1983505 0.27826-0.9691 0.7836-1.66314 1.15141-2.55868 0.93393-2.25484 0.63328-3.42544 3.26234-4.90947 1.42648-0.80599 3.20157-0.84437 4.79756-0.84756h300.32724c3.81886 6e-3 2.63225 0.85715 6.07693 3.33907 3.09919 2.23245 6.56625 4.6664 9.91495 6.47667l10.55461 4.5608475c1.59598 0.5853 4.78478 1.586382 6.07693 2.456336l6.39672 5.152544c1.71754 1.388083 2.30326 2.451281 3.78092 4.229566 2.25806 2.718597 2.91329 3.452876 3.54978 4.434768l1.42326 1.682333 1.59278 2.529899 5.48201 6.396703 2.88493 4.157857 7.06203 9.275221 2.24844 2.55868 4.65363 6.076869c2.62906 2.942486 3.36149 2.836941 5.84025 6.396707 2.00216 2.872118 2.73571 4.481474 2.74211 8.063628l0.63857 205.266443v202.77552c0 0.67163-0.31497 1.63479-0.54528 2.25845-0.37103 1.01708-3.63503 5.06257-4.55934 6.05726-2.9265 3.14078-1.22498 3.37746-5.1302 6.71655-3.65893 3.12479-5.67711 2.72178-7.50658 4.4553-1.51923 1.43604-2.94791 3.69405-3.13023 5.72501z"/>
	<g id="NoteColours">
		<rect id="WhiteRectangle" x="68.853981" y="323.3916" width="370.08456" height="175.60532" fill="#fff"/>
		<rect id="RedRectangle" x="73.407227" y="255.315" width="365.38297" height="68.176971" fill="#ff5249"/>
	</g>
	<g id="FlapColours">
		<rect id="MetalFlap" x="134.558" y="14.513804" width="243.87201" height="183.49324" fill="#adb4b8"/>
		<rect id="SecondFlapBackground" x="268.91046" y="41.901234" width="53.504585" height="126.94129" fill="#282c3e"/>
		<rect id="FirstFlapBackground" x="71.287231" y="27.524822" width="59.097275" height="175.08621" fill="#282c3e"/>
	</g>
	<path id="FlapOpening" d="m268.99989 29.999784c-8.64 0.01-11.85953 0.309277-11.99953 9.999277v131.000489c0.14 9.69 3.35953 9.99123 11.99953 10.00123h51.00641c8.63541-0.0101 11.8537-0.31351 11.99366-10.00123v-131.000489c-0.13996-9.687718-3.35825-9.989142-11.99366-9.999277h-0.71688zm3.00036 14.999892h44.99968v121.001214h-44.99968z"/>
	<g id="FloppySides" fill="#000">
		<path id="FloppySideRight" d="m474.14426 452.2275c-2.09094 0.0999-4.14123 1.04942-5.49286 2.88708-1.43136 1.93809-1.63422 4.45859-1.6506 6.88561 0.0212 3.35973-3e-3 6.71963 0 10.07936 0.0164 2.42702 0.21924 4.94753 1.6506 6.88562 3.08945 4.20036 9.82527 3.75824 12.36675-0.85558 1.29436-2.36798 1.10561-5.75153 1.10561-8.40142v-5.3366c0-2.64989 0.18875-6.03344-1.10561-8.40142-1.42958-2.59527-4.18554-3.87113-6.87389-3.74265z"/>
		<path id="FloppySideLeft" d="m37.021636 452.2275c-2.09094 0.0999-4.14123 1.04942-5.49286 2.88708-1.43136 1.93809-1.63422 4.45859-1.6506 6.88561 0.0212 3.35973-3e-3 6.71963 0 10.07936 0.0164 2.42702 0.21924 4.94753 1.6506 6.88562 3.08945 4.20036 9.82527 3.75824 12.36675-0.85558 1.29436-2.36798 1.10561-5.75153 1.10561-8.40142v-5.3366c0-2.64989 0.18875-6.03344-1.10561-8.40142-1.42958-2.59527-4.18554-3.87113-6.87389-3.74265z"/>
	</g>
	<path id="Outline" fill="#000" d="m120 15c0-3.41-0.61-10.06 1.6-12.69 1.93-2.28 4.67-2.26 7.4-2.31h304c15.83 0.02 22.33 6.33 33 17l15 15c13.76 13.76 30.97 25.82 31 47v401c0 12.85 1.05 25.66-14 30.89-3.53 1.23-6.36 1.1-10 1.11h-464c-15.25-0.02-23.97-7.32-24-23v-466c0.03-15.68 8.75-22.98 24-23h42c8.7 0.16 8.98 3.34 9 11v4zm-60 0h-31c-3.81 0.05-8.73 0.19-11.44 3.3-2.73 3.13-2.55 8.77-2.56 12.7v437c0 6.65-1.76 23.15 4.14 27.07 3.11 2.06 8.25 1.92 11.86 1.93h29v-234c0.13-9.75 6.48-18.46 16-21.21 3.07-0.89 5.85-0.79 9-0.79h343c15.85 0.08 23.98 9.58 24 25v231h31c3.81-0.05 8.73-0.19 11.44-3.3 2.73-3.13 2.55-8.77 2.56-12.7v-393c-0.01-5.12-0.49-12.3-2.53-17-2.45-5.62-8.16-10.69-12.47-15l-21-21c-5.77-5.77-14.32-15.8-22-18.21-9.13-2.86-36.02-1.79-47-1.79v158c-0.02 15.29-8.37 29.55-23 35.53-5.41 2.21-9.29 2.46-15 2.47h-283c-9.66-0.07-10.98-2.93-11-12zm317 0h-242v152c0.05 3.55 0.78 10.77 1.97 14 4.6 12.57 16.2 14.98 28.03 15h183c11.5-0.05 22.63-2.96 27.03-15 1.49-4.07 1.96-11.59 1.97-16zm-256.85 15h-45.15v166h51l-5.85-15v-51zm316.85 286v-44c-0.01-3.93 0.17-9.57-2.56-12.7-3.08-3.53-9.15-3.29-13.44-3.3h-320c-5.29 0-17.74-0.8-21.86 1.93-4.45 2.95-4.13 9.36-4.14 14.07v44h20c4.44 0.09 8.59 0.88 9.67 6 0.87 4.12-1.71 7.68-5.67 8.84h-24v166.16h362v-166h-307c-5.41-0.1-11.07-2.36-9.67-9 1.28-6.04 6.76-5.99 11.67-6z"/>
	<g id="NoteText" fill="#000">
		<path id="Line3" d="m100.1163 450.96477c-2.582812 0.0173-5.264573 0.23131-7.327073 1.74631-4.47 3.27-3.999732 10.40145 0.910268 13.09145 2.52 1.37 8.940555 1.19747 8.940555 1.19747h306.35995c2.82 0 6.42055 0.19993 8.94055-1.17007 4.91-2.69 5.38027-9.8195 0.91027-13.0895-2.89093-2.03234-6.49792-1.68981-9.85082-1.76766h-306.35995c-0.8125 2e-3 -1.66281-0.0134-2.52375-8e-3z"/>
		<path id="Line2" d="m100.47625 405.99217c-2.582812 0.0173-5.264573 0.23131-7.327073 1.74631-4.47 3.27-3.999732 10.40145 0.910268 13.09145 2.52 1.37 8.940555 1.19747 8.940555 1.19747h306.35995c2.82 0 6.42055 0.19993 8.94055-1.17007 4.91-2.69 5.38027-9.8195 0.91027-13.0895-2.89082-2.03155-6.49795-1.69094-9.85082-1.76766h-306.35995c-0.8125 2e-3 -1.66281-0.0134-2.52375-8e-3z"/>
		<path id="Line1" d="m100.11583 360.96432c-2.582812 0.0173-5.264573 0.23131-7.327073 1.74631-4.47 3.27-3.999732 10.40145 0.910268 13.09145 2.52 1.37 8.940555 1.19747 8.940555 1.19747h306.35995c2.82 0 6.42055 0.19993 8.94055-1.17007 4.91-2.69 5.38027-9.8195 0.91027-13.0895-2.89084-2.03166-6.49795-1.69074-9.85082-1.76776h-306.35995c-0.8125 2e-3 -1.66281-0.0134-2.52375-8e-3z"/>
	</g>
</svg>
