<?xml version="1.0" encoding="UTF-8"?>
<svg id="FloppyDisk" fill="#000" width="511.93701" height="511.95273" version="1.1" viewBox="0 0 511.99999 512.01571" xmlns="http://www.w3.org/2000/svg">
	<g id="NoteText">
		<path id="Line3" d="m100.1163 450.96477c-2.582812 0.0173-5.264573 0.23131-7.327073 1.74631-4.47 3.27-3.999732 10.40145 0.910268 13.09145 2.52 1.37 8.940555 1.19747 8.940555 1.19747h306.35995c2.82 0 6.42055 0.19993 8.94055-1.17007 4.91-2.69 5.38027-9.8195 0.91027-13.0895-2.89093-2.03234-6.49792-1.68981-9.85082-1.76766h-306.35995c-0.8125 2e-3 -1.66281-0.0134-2.52375-8e-3z"/>
		<path id="Line2" d="m100.47625 405.99217c-2.582812 0.0173-5.264573 0.23131-7.327073 1.74631-4.47 3.27-3.999732 10.40145 0.910268 13.09145 2.52 1.37 8.940555 1.19747 8.940555 1.19747h306.35995c2.82 0 6.42055 0.19993 8.94055-1.17007 4.91-2.69 5.38027-9.8195 0.91027-13.0895-2.89082-2.03155-6.49795-1.69094-9.85082-1.76766h-306.35995c-0.8125 2e-3 -1.66281-0.0134-2.52375-8e-3z"/>
		<path id="Line1" d="m100.11583 360.96432c-2.582812 0.0173-5.264573 0.23131-7.327073 1.74631-4.47 3.27-3.999732 10.40145 0.910268 13.09145 2.52 1.37 8.940555 1.19747 8.940555 1.19747h306.35995c2.82 0 6.42055 0.19993 8.94055-1.17007 4.91-2.69 5.38027-9.8195 0.91027-13.0895-2.89084-2.03166-6.49795-1.69074-9.85082-1.76776h-306.35995c-0.8125 2e-3 -1.66281-0.0134-2.52375-8e-3z"/>
	</g>
	<path id="FlapOpening" d="m268.99989 29.999784c-8.64 0.01-11.85953 0.309277-11.99953 9.999277v131.000489c0.14 9.69 3.35953 9.99123 11.99953 10.00123h51.00641c8.63541-0.0101 11.8537-0.31351 11.99366-10.00123v-131.000489c-0.13996-9.687718-3.35825-9.989142-11.99366-9.999277h-0.71688zm3.00036 14.999892h44.99968v121.001214h-44.99968z"/>
	<g id="FloppySides">
		<path id="FloppySideRight" d="m474.14426 452.2275c-2.09094 0.0999-4.14123 1.04942-5.49286 2.88708-1.43136 1.93809-1.63422 4.45859-1.6506 6.88561 0.0212 3.35973-3e-3 6.71963 0 10.07936 0.0164 2.42702 0.21924 4.94753 1.6506 6.88562 3.08945 4.20036 9.82527 3.75824 12.36675-0.85558 1.29436-2.36798 1.10561-5.75153 1.10561-8.40142v-5.3366c0-2.64989 0.18875-6.03344-1.10561-8.40142-1.42958-2.59527-4.18554-3.87113-6.87389-3.74265z"/>
		<path id="FloppySideLeft" d="m37.021636 452.2275c-2.09094 0.0999-4.14123 1.04942-5.49286 2.88708-1.43136 1.93809-1.63422 4.45859-1.6506 6.88561 0.0212 3.35973-3e-3 6.71963 0 10.07936 0.0164 2.42702 0.21924 4.94753 1.6506 6.88562 3.08945 4.20036 9.82527 3.75824 12.36675-0.85558 1.29436-2.36798 1.10561-5.75153 1.10561-8.40142v-5.3366c0-2.64989 0.18875-6.03344-1.10561-8.40142-1.42958-2.59527-4.18554-3.87113-6.87389-3.74265z"/>
	</g>
	<path id="Outline" d="m120 15c0-3.41-0.61-10.06 1.6-12.69 1.93-2.28 4.67-2.26 7.4-2.31h304c15.83 0.02 22.33 6.33 33 17l15 15c13.76 13.76 30.97 25.82 31 47v401c0 12.85 1.05 25.66-14 30.89-3.53 1.23-6.36 1.1-10 1.11h-464c-15.25-0.02-23.97-7.32-24-23v-466c0.03-15.68 8.75-22.98 24-23h42c8.7 0.16 8.98 3.34 9 11v4zm-60 0h-31c-3.81 0.05-8.73 0.19-11.44 3.3-2.73 3.13-2.55 8.77-2.56 12.7v437c0 6.65-1.76 23.15 4.14 27.07 3.11 2.06 8.25 1.92 11.86 1.93h29v-234c0.13-9.75 6.48-18.46 16-21.21 3.07-0.89 5.85-0.79 9-0.79h343c15.85 0.08 23.98 9.58 24 25v231h31c3.81-0.05 8.73-0.19 11.44-3.3 2.73-3.13 2.55-8.77 2.56-12.7v-393c-0.01-5.12-0.49-12.3-2.53-17-2.45-5.62-8.16-10.69-12.47-15l-21-21c-5.77-5.77-14.32-15.8-22-18.21-9.13-2.86-36.02-1.79-47-1.79v158c-0.02 15.29-8.37 29.55-23 35.53-5.41 2.21-9.29 2.46-15 2.47h-283c-9.66-0.07-10.98-2.93-11-12zm317 0h-242v152c0.05 3.55 0.78 10.77 1.97 14 4.6 12.57 16.2 14.98 28.03 15h183c11.5-0.05 22.63-2.96 27.03-15 1.49-4.07 1.96-11.59 1.97-16zm-256.85 15h-45.15v166h51l-5.85-15v-51zm316.85 286v-44c-0.01-3.93 0.17-9.57-2.56-12.7-3.08-3.53-9.15-3.29-13.44-3.3h-320c-5.29 0-17.74-0.8-21.86 1.93-4.45 2.95-4.13 9.36-4.14 14.07v44h20c4.44 0.09 8.59 0.88 9.67 6 0.87 4.12-1.71 7.68-5.67 8.84h-24v166.16h362v-166h-307c-5.41-0.1-11.07-2.36-9.67-9 1.28-6.04 6.76-5.99 11.67-6z"/>
</svg>
