<?xml version="1.0" encoding="UTF-8"?>
<svg id="FloppyDisk" width="135.45mm" height="135.45mm" version="1.1" viewBox="0 0 512 512" xmlns="http://www.w3.org/2000/svg">
	<g id="NoteText" fill="#000">
		<path id="Line3" d="m95.02 451.74c5.97-1.46 26.52-0.74 33.98-0.74h67 213c3.25 0.01 7.1-0.28 9.85 1.74 4.47 3.27 4 10.4-0.91 13.09-2.52 1.37-6.12 1.17-8.94 1.17h-243-63c-3.25-0.01-7.1 0.28-9.85-1.74-5.4-3.94-3.41-10.54 1.87-13.52z"/>
		<path id="Line2" d="m95.02 406.74c5.97-1.46 26.52-0.74 33.98-0.74h67 213c3.25 0.01 7.1-0.28 9.85 1.74 4.47 3.27 4 10.4-0.91 13.09-2.52 1.37-6.12 1.17-8.94 1.17h-243-63c-3.25-0.01-7.1 0.28-9.85-1.74-5.4-3.94-3.41-10.54 1.87-13.52z"/>
		<path id="Line1" d="m95.02 361.74c5.97-1.46 26.52-0.74 33.98-0.74h67 213c3.25 0.01 7.1-0.28 9.85 1.74 4.47 3.27 4 10.4-0.91 13.09-2.52 1.37-6.12 1.17-8.94 1.17h-243-63c-3.25-0.01-7.1 0.28-9.85-1.74-5.4-3.94-3.41-10.54 1.87-13.52z"/>
	</g>
	<path id="FlapOpening" fill="#000" d="m261.11 30.74c5.31-1.35 15.05-0.74 20.89-0.74h39c10.23 0.05 10.98 2.33 11 12v75 54c-0.14 9.69-3.36 9.99-12 10h-53c-9.69-0.14-9.99-3.36-10-12v-104-25c0.07-4.72-0.08-6.61 4.11-9.26zm55.89 14.26h-45v121h45v-121z"/>
	<g id="FloppySides" fill="#000">
		<path id="FloppySideRight" d="m471.11 452.74c13.02-3.16 10.9 8.75 10.89 17.26 0 2.63 0.0629 6.5-1.32706 8.77-1.63 2.66-3.79061 3.44-6.71061 2.99-8.16-1.27-7.04233-13.59-6.96233-19.76 0.03-1.82 0.01-4.2 0.74-5.89 0.93-2.18 1.58-2.23 3.37-3.37z"/>
		<path id="FloppySideLeft" d="m34.11 452.74c13.02-3.16 10.9 8.75 10.89 17.26 0 2.63 0.22 6.5-1.17 8.77-1.63 2.66-4.026196 3.44-6.946196 2.99-8.16-1.27-6.963804-13.59-6.883804-19.76 0.03-1.82 0.01-4.2 0.74-5.89 0.93-2.18 1.58-2.23 3.37-3.37z"/>
	</g>
	<path id="Outline" fill="#000" d="m120 15c0-3.41-0.61-10.06 1.6-12.69 1.93-2.28 4.67-2.26 7.4-2.31h35 143 126c15.83 0.02 22.33 6.33 33 17l15 15c13.76 13.76 30.97 25.82 31 47v207 173 21c0 12.85 1.05 25.66-14 30.89-3.53 1.23-6.36 1.1-10 1.11h-375-89c-15.25-0.02-23.97-7.32-24-23v-376-90c0.03-15.68 8.75-22.98 24-23h42c8.7 0.16 8.98 3.34 9 11v4h45zm-60 0h-31c-3.81 0.05-8.73 0.19-11.44 3.3-2.73 3.13-2.55 8.77-2.56 12.7v352 85c0 6.65-1.76 23.15 4.14 27.07 3.11 2.06 8.25 1.92 11.86 1.93h29v-197-37c0.13-9.75 6.48-18.46 16-21.21 3.07-0.89 5.85-0.79 9-0.79h282 61c15.85 0.08 23.98 9.58 24 25v231h31c3.81-0.05 8.73-0.19 11.44-3.3 2.73-3.13 2.55-8.77 2.56-12.7v-116-277c-0.01-5.12-0.49-12.3-2.53-17-2.45-5.62-8.16-10.69-12.47-15l-21-21c-5.77-5.77-14.32-15.8-22-18.21-9.13-2.86-36.02-1.79-47-1.79v158c-0.02 15.29-8.37 29.55-23 35.53-5.41 2.21-9.29 2.46-15 2.47h-226-57c-9.66-0.07-10.98-2.93-11-12v-184zm317 0h-242v152c0.05 3.55 0.78 10.77 1.97 14 4.6 12.57 16.2 14.98 28.03 15h183c11.5-0.05 22.63-2.96 27.03-15 1.49-4.07 1.96-11.59 1.97-16v-150zm-256.85 15h-45.15v166h51l-5.85-15v-51-100zm316.85 286v-44c-0.01-3.93 0.17-9.57-2.56-12.7-3.08-3.53-9.15-3.29-13.44-3.3h-266-54c-5.29 0-17.74-0.8-21.86 1.93-4.45 2.95-4.13 9.36-4.14 14.07v44h20c4.44 0.09 8.59 0.88 9.67 6 0.87 4.12-1.71 7.68-5.67 8.84h-24v166.16h362v-166h-244-63c-5.41-0.1-11.07-2.36-9.67-9 1.28-6.04 6.76-5.99 11.67-6h305z"/>
</svg>
