<?xml version="1.0" encoding="UTF-8"?>
<svg width="479.33" height="799.99" fill="#000000" version="1.1" viewBox="0 0 306.77 512" xml:space="preserve" xmlns="http://www.w3.org/2000/svg">
	<path d="m281.65 136.82h-26.188v-123.1c0-2.957-1.627-5.674-4.234-7.068-2.606-1.396-5.77-1.243-8.229 0.398l-12.656 8.437-21.207-14.137c-2.694-1.796-6.201-1.796-8.893 0l-21.207 14.137-21.206-14.137c-2.694-1.796-6.201-1.796-8.893 0l-21.207 14.137-21.207-14.137c-2.694-1.796-6.201-1.796-8.893 0l-21.207 14.137-12.656-8.437c-2.46-1.641-5.623-1.794-8.229-0.398-2.607 1.395-4.234 4.111-4.234 7.068v123.1h-26.188c-13.851 0-25.119 11.268-25.119 25.119v324.94c0 13.851 11.268 25.119 25.119 25.119h256.53c13.851 0 25.119-11.268 25.119-25.119v-324.94c0-13.85-11.268-25.119-25.119-25.119zm-214.31-108.12 4.639 3.092c2.694 1.796 6.202 1.796 8.893 0l21.207-14.138 21.207 14.138c2.694 1.796 6.201 1.796 8.893 0l21.207-14.138 21.207 14.138c2.694 1.796 6.201 1.796 8.893 0l21.207-14.138 21.207 14.138c2.694 1.796 6.202 1.796 8.893 0l4.639-3.092v142.33h-172.09zm223.4 458.18c0 5.01-4.076 9.086-9.086 9.086h-256.53c-5.01 0-9.086-4.076-9.086-9.086v-324.94c0-5.01 4.076-9.086 9.086-9.086h26.188v18.171h-9.086c-4.427 0-8.017 3.589-8.017 8.017s3.589 8.017 8.017 8.017h222.33c4.427 0 8.017-3.589 8.017-8.017s-3.589-8.017-8.017-8.017h-9.086v-18.171h26.188c5.01 0 9.086 4.076 9.086 9.086z"/>
	<path d="m255.99 205.23h-205.23c-9.136 0-16.568 7.432-16.568 16.568v42.756c0 9.136 7.432 16.568 16.568 16.568h205.23c9.136 0 16.568-7.432 16.568-16.568v-42.756c0-9.136-7.432-16.568-16.568-16.568zm0.534 59.323c0 0.295-0.239 0.534-0.534 0.534h-205.23c-0.295 0-0.534-0.239-0.534-0.534v-42.756c0-0.295 0.239-0.534 0.534-0.534h205.23c0.295 0 0.534 0.239 0.534 0.534z"/>
	<path d="m93.522 299.29h-34.205c-9.136 0-16.568 7.432-16.568 16.568v17.102c0 9.136 7.432 16.568 16.568 16.568h34.205c9.136 0 16.568-7.432 16.568-16.568v-17.102c0-9.136-7.432-16.568-16.568-16.568zm0.534 33.67c0 0.295-0.239 0.534-0.534 0.534h-34.205c-0.295 0-0.534-0.239-0.534-0.534v-17.102c0-0.295 0.239-0.534 0.534-0.534h34.205c0.295 0 0.534 0.239 0.534 0.534z"/>
	<path d="m247.44 299.29h-34.205c-9.136 0-16.568 7.432-16.568 16.568v17.102c0 9.136 7.432 16.568 16.568 16.568h34.205c9.136 0 16.568-7.432 16.568-16.568v-17.102c-1e-3 -9.136-7.433-16.568-16.568-16.568zm0.534 33.67c0 0.295-0.239 0.534-0.534 0.534h-34.205c-0.295 0-0.534-0.239-0.534-0.534v-17.102c0-0.295 0.239-0.534 0.534-0.534h34.205c0.295 0 0.534 0.239 0.534 0.534z"/>
	<path d="m170.48 299.29h-34.205c-9.136 0-16.568 7.432-16.568 16.568v17.102c0 9.136 7.432 16.568 16.568 16.568h34.205c9.136 0 16.568-7.432 16.568-16.568v-17.102c0-9.136-7.432-16.568-16.568-16.568zm0.535 33.67c0 0.295-0.239 0.534-0.534 0.534h-34.205c-0.295 0-0.534-0.239-0.534-0.534v-17.102c0-0.295 0.239-0.534 0.534-0.534h34.205c0.295 0 0.534 0.239 0.534 0.534z"/>
	<path d="m93.522 359.15h-34.205c-9.136 0-16.568 7.432-16.568 16.568v17.102c0 9.136 7.432 16.568 16.568 16.568h34.205c9.136 0 16.568-7.432 16.568-16.568v-17.102c0-9.136-7.432-16.568-16.568-16.568zm0.534 33.67c0 0.295-0.239 0.534-0.534 0.534h-34.205c-0.295 0-0.534-0.239-0.534-0.534v-17.102c0-0.295 0.239-0.534 0.534-0.534h34.205c0.295 0 0.534 0.239 0.534 0.534z"/>
	<path d="m247.44 359.15h-34.205c-9.136 0-16.568 7.432-16.568 16.568v17.102c0 9.136 7.432 16.568 16.568 16.568h34.205c9.136 0 16.568-7.432 16.568-16.568v-17.102c-1e-3 -9.136-7.433-16.568-16.568-16.568zm0.534 33.67c0 0.295-0.239 0.534-0.534 0.534h-34.205c-0.295 0-0.534-0.239-0.534-0.534v-17.102c0-0.295 0.239-0.534 0.534-0.534h34.205c0.295 0 0.534 0.239 0.534 0.534z"/>
	<path d="m170.48 359.15h-34.205c-9.136 0-16.568 7.432-16.568 16.568v17.102c0 9.136 7.432 16.568 16.568 16.568h34.205c9.136 0 16.568-7.432 16.568-16.568v-17.102c0-9.136-7.432-16.568-16.568-16.568zm0.535 33.67c0 0.295-0.239 0.534-0.534 0.534h-34.205c-0.295 0-0.534-0.239-0.534-0.534v-17.102c0-0.295 0.239-0.534 0.534-0.534h34.205c0.295 0 0.534 0.239 0.534 0.534z"/>
	<path d="m93.522 419.01h-34.205c-9.136 0-16.568 7.432-16.568 16.568v17.102c0 9.136 7.432 16.568 16.568 16.568h34.205c9.136 0 16.568-7.432 16.568-16.568v-17.102c0-9.136-7.432-16.568-16.568-16.568zm0.534 33.67c0 0.295-0.239 0.534-0.534 0.534h-34.205c-0.295 0-0.534-0.239-0.534-0.534v-17.102c0-0.295 0.239-0.534 0.534-0.534h34.205c0.295 0 0.534 0.239 0.534 0.534z"/>
	<path d="m247.44 419.01h-34.205c-9.136 0-16.568 7.432-16.568 16.568v17.102c0 9.136 7.432 16.568 16.568 16.568h34.205c9.136 0 16.568-7.432 16.568-16.568v-17.102c-1e-3 -9.136-7.433-16.568-16.568-16.568zm0.534 33.67c0 0.295-0.239 0.534-0.534 0.534h-34.205c-0.295 0-0.534-0.239-0.534-0.534v-17.102c0-0.295 0.239-0.534 0.534-0.534h34.205c0.295 0 0.534 0.239 0.534 0.534z"/>
	<path d="m170.48 419.01h-34.205c-9.136 0-16.568 7.432-16.568 16.568v17.102c0 9.136 7.432 16.568 16.568 16.568h34.205c9.136 0 16.568-7.432 16.568-16.568v-17.102c0-9.136-7.432-16.568-16.568-16.568zm0.535 33.67c0 0.295-0.239 0.534-0.534 0.534h-34.205c-0.295 0-0.534-0.239-0.534-0.534v-17.102c0-0.295 0.239-0.534 0.534-0.534h34.205c0.295 0 0.534 0.239 0.534 0.534z"/>
	<path d="m212.13 93.616h-59.631c-4.427 0-8.017 3.589-8.017 8.017 0 4.428 3.589 8.017 8.017 8.017h59.631c4.427 0 8.017-3.589 8.017-8.017 0-4.428-3.589-8.017-8.017-8.017z"/>
	<path d="m213.83 149.41h-122.22c-4.427 0-8.017 3.589-8.017 8.017s3.589 8.017 8.017 8.017h122.22c4.427 0 8.017-3.589 8.017-8.017s-3.589-8.017-8.017-8.017z"/>
	<path d="m211.94 59.855h-59.16c-4.427 0-8.017 3.589-8.017 8.017s3.589 8.017 8.017 8.017h59.16c4.427 0 8.017-3.589 8.017-8.017s-3.589-8.017-8.017-8.017z"/>
	<path d="m212.58 124.27h-17.102c-4.427 0-8.017 3.589-8.017 8.017s3.589 8.017 8.017 8.017h17.102c4.427 0 8.017-3.589 8.017-8.017s-3.59-8.017-8.017-8.017z"/>
	<path d="m169.93 124.27h-17.102c-4.427 0-8.017 3.589-8.017 8.017s3.589 8.017 8.017 8.017h17.102c4.427 0 8.017-3.589 8.017-8.017s-3.59-8.017-8.017-8.017z"/>
	<path d="m117.2 81.112h-5.8128v-26.481h16.146c2.676 0 4.8438-2.1685 4.8438-4.8438 0-2.676-2.1685-4.8438-4.8438-4.8438h-16.146v-5.8128c0-2.676-2.1685-4.8438-4.8438-4.8438-2.6754 0-4.8438 2.1685-4.8438 4.8438v5.8128h-5.1668c-8.369 0-15.501 6.4861-15.501 14.855v15.501c0 8.369 7.1315 15.501 15.501 15.501h5.1668v26.481h-15.501c-2.6754 0-4.8438 2.1685-4.8438 4.8438 0 2.676 2.1691 4.8438 4.8438 4.8438h15.501v5.1668c0 2.676 2.1691 4.8438 4.8438 4.8438 2.676 0 4.8438-2.1685 4.8438-4.8438v-5.1668h5.8128c8.369 0 14.855-7.1314 14.855-15.501v-15.501c-6.1e-4 -8.369-6.4861-14.855-14.855-14.855zm-15.501 0h-5.1668c-3.0274 0-5.8128-2.7854-5.8128-5.8128v-15.501c0-3.0274 2.7854-5.1668 5.8128-5.1668h5.1668zm20.668 30.356c0 3.0274-2.14 5.8128-5.1668 5.8128h-5.8128v-26.481h5.8128c3.0274 0 5.1668 2.14 5.1668 5.1668z" stroke-width=".60487"/>
</svg>
