<?xml version="1.0" encoding="UTF-8"?>
<svg fill="#8f63e5" version="1.1" viewBox="0 0 40.311 33.996" xmlns="http://www.w3.org/2000/svg">
<path d="m35.554 21.703c0.1686-1.1803 0.3252-2.4328 0.3914-3.7336 0-9.9241-8.0754-17.969-18.042-17.969-3.2278 0-6.4315 0.86716-9.2076 2.4991-2.6978 1.5898-4.9681 3.8781-6.5097 6.6-1.8909 3.3482-2.6316 7.3347-1.921 11.11 0.66843 3.5589 2.5714 6.8228 5.2632 9.2497 2.7038 2.4388 6.1785 3.9443 9.7796 4.4201 0.9033 0.1204 1.8307 0.1385 2.74 0.0963 4.9319-0.2168 9.3039-2.487 12.363-5.9677 1.3369 3.1615 4.125 5.8533 9.9001 5.2692-0.7829-0.253-6.5519-0.2108-4.7453-11.58m-15.994 7.5876c-1.2044 0.6384-2.6255 0.8009-3.9263 0.3915-5.1547-1.6139-9.0148-6.311-9.2677-11.99-0.27701-6.2508 3.9082-11.701 9.7374-13.284 1.5597-0.42756 3.2278-0.24088 4.655 0.51186l0.0181 0.01205c-0.0964 0-0.1867 0-0.2831 0.01204-5.2812 0.35529-9.5688 4.0046-10.984 8.792 0.01204-0.0301 0.02409-0.0602 0.03613-0.0843-0.06022 0.1626-0.12044 0.3252-0.17464 0.4938-1.921 5.9918 1.903 12.206 8.1597 14.573 0.6745 0.253 1.361 0.4396 2.0415 0.5541l-0.0181 0.012zm6.3471-6.0942c-0.8792 1.4272-1.9511 2.734-3.1675 3.842-0.5901 0.536-1.4392 0.6865-2.1799 0.3915-5.498-2.2041-7.4311-6.6362-5.8654-11.502 0.8371-2.6135 2.6135-4.6791 4.8778-5.769 3.589-1.7283 7.7382 0.5359 8.256 4.4682 0.4035 3.0772-0.56 6.4435-1.9149 8.5692" />
</svg>
