<?xml version="1.0" encoding="UTF-8"?>
<svg width="1.7067in" height="1.4067in" version="1.1" viewBox="0 0 512 422" xmlns="http://www.w3.org/2000/svg"><path id="Imported Path" d="m451.58 269.4c2.14-14.65 4.13-30.19 4.97-46.34 0-123.19-102.15-222.51-228.73-222.51-41 0-82.111 10.22-117.37 30.48-34.27 19.73-62.453 47.622-82.033 81.402-24.02 41.57-33.559 90.921-24.529 137.79 8.49 44.17 32.142 85.337 66.332 115.46 34.34 30.28 78.539 48.487 124.28 54.387 11.47 1.5 23.25 1.72 34.8 1.2 62.64-2.69 118.1-30.387 156.96-73.597 16.98 39.24 52.244 72.66 125.59 65.41-9.94-3.14-83.074-2.62-60.124-143.75m-203.14 94.19c-15.3 7.92-33.35 9.94-49.87 4.86-65.48-20.04-114.5-78.34-117.72-148.84-3.51-77.59 49.64-145.24 123.68-164.89 19.81-5.31 41-2.99 59.13 6.35l0.23 0.15c-1.23 0-2.38 0-3.6 0.15-67.08 4.41-121.54 49.71-139.51 109.14 0.15-0.38 0.31-0.75 0.46-1.05-0.77 2.02-1.53 4.04-2.22 6.13-24.4 74.38 24.17 151.51 103.64 180.9 8.57 3.14 17.29 5.45 25.93 6.87l-0.23 0.15zm80.53-75.72c-11.16 17.71-24.78 33.93-40.23 47.69-7.49 6.65-18.28 8.52-27.68 4.86-69.84-27.36-94.39-82.38-74.5-142.78 10.63-32.44 33.19-58.08 61.95-71.61 45.59-21.46 98.29 6.65 104.86 55.46 5.13 38.2-7.11 79.99-24.32 106.37" stroke="#000"/></svg>
