<?xml version="1.0" encoding="UTF-8"?>
<svg width="700.01" height="584.59" fill="#000000" version="1.1" viewBox="0 0 448.01 374.13" xmlns="http://www.w3.org/2000/svg">
	<path d="m446.33 343.63-90-218c-7.4891-18.139-33.181-18.139-40.67 0l-90 218c-4.7081 11.247 0.62854 24.178 11.899 28.83 11.27 4.6526 24.174-0.74764 28.771-12.04l18.33-44.39h102.67l18.33 44.39c3.3982 8.2372 11.429 13.611 20.34 13.61 15.664-9e-3 26.301-15.922 20.32-30.4zm-143.5-71.6 33.17-80.35 33.17 80.35z"/>
	<path d="m235.84 252.95c7.1167-9.8304 4.9287-23.567-4.89-30.7-0.2-0.15-15-11.13-36.49-34.73 39.65-53.68 78.102-158.75 87.262-187.49-116.39-0.075537-207.34 0-259.72 0-12.15 0-22 9.8497-22 22s9.8497 22 22 22h197.25c-9.52 26.95-27.05 69.5-53.79 108.36-31.41-41.68-43.08-68.65-43.17-68.87-4.7854-11.059-17.577-16.211-28.691-11.555-11.114 4.656-16.415 17.387-11.889 28.555 0.58 1.38 14.55 34.23 52.86 83.93 0.92 1.19 1.83 2.35 2.74 3.51-39.24 44.35-77.74 71.86-93.85 80.74-10.667 5.8183-14.598 19.183-8.78 29.85 5.8183 10.667 19.183 14.598 29.85 8.78 2.16-1.18 48.6-26.89 101.63-85.59 22.52 24.08 38 35.44 38.93 36.1 9.842 7.1487 23.617 4.9536 30.75-4.9z"/>
</svg>
