<?xml version="1.0" encoding="UTF-8"?>
<svg width="800px" height="800px" version="1.1" viewBox="0 0 504 504" xml:space="preserve" xmlns="http://www.w3.org/2000/svg">
<path d="m461.6 372.8h-12c-5.3655 0-5.3655-8 0-8h5.6c0.8-1.6 3.2-2.4 5.6-1.6l3.2 1.6c1.6 0.8 2.4 2.4 1.6 4.8s-2.4 3.2-4 3.2z" display="none" fill="#c3d7dd"/><g><g fill="#c3d7dd">
	<path d="m70.021 356.82c-1.6 0-2.4-0.8-3.2-1.6-0.8-1.6-0.8-4 1.6-5.6l68.171-39.74c1.6-0.8 4-0.8 5.6 1.6 0.8 1.6 0.8 4-1.6 5.6l-68.171 39.74zm-4.4212-23.217c-0.8 0-1.6 0-2.4-0.8-1.6-0.8-2.4-3.2-1.6-5.6l8-13.6c0.8-1.6 3.2-2.4 5.6-1.6 1.6 0.8 2.4 3.2 1.6 5.6l-8 13.6c0 1.6-1.6 2.4-3.2 2.4zm76.078-17.953c-1.6 0 0 0 0 0zm13.522-7.6473c-1.6 0-2.4-0.8-3.2-1.6-0.8-1.6-0.8-4 1.6-5.6l13.6-8c1.6-0.8 4-0.8 5.6 1.6 0.8 1.6 0.8 4-1.6 5.6l-13.6 8zm-72.8-2.4c-0.8 0-1.6 0-2.4-0.8-1.6-0.8-2.4-3.2-1.6-5.6l8-13.6c0.8-1.6 3.2-2.4 5.6-1.6 1.6 0.8 2.4 3.2 1.6 5.6l-8 13.6c-0.8 1.6-2.4 2.4-3.2 2.4zm100-13.6c-1.6 0-2.4-0.8-3.2-1.6-0.8-1.6-0.8-4 1.6-5.6l13.6-8c1.6-0.8 4-0.8 5.6 1.6 0.8 1.6 0.8 4-1.6 5.6l-13.6 8zm-84-13.6c-0.8 0-1.6 0-2.4-0.8-1.6-0.8-2.4-3.2-1.6-5.6l8-13.6c0.8-1.6 3.2-2.4 5.6-1.6s2.4 3.2 1.6 5.6l-8 13.6c-0.8 1.6-1.6 2.4-3.2 2.4zm112-2.4c-1.6 0-2.4-0.8-3.2-1.6-0.8-1.6-0.8-4 1.6-5.6l13.6-8c1.6-0.8 4-0.8 5.6 1.6 0.8 1.6 0.8 4-1.6 5.6l-13.6 8zm28-16c-1.6 0-2.4-0.8-3.2-1.6-0.8-1.6-0.8-4 1.6-5.6l13.6-8c1.6-0.8 4-0.8 5.6 1.6 0.8 1.6 0.8 4-1.6 5.6l-13.6 8zm-124-9.6c-0.8 0-1.6 0-2.4-0.8-1.6-0.8-2.4-3.2-1.6-5.6l8-13.6c0.8-1.6 3.2-2.4 5.6-1.6 1.6 0.8 2.4 3.2 1.6 5.6l-8 13.6c0 1.6-1.6 2.4-3.2 2.4zm137.6-8.8c-2.4 0-4-1.6-4-4v-16c0-2.4 1.6-4 4-4s4 1.6 4 4v16c0 2.4-1.6 4-4 4zm-121.6-18.4c-0.8 0-1.6 0-2.4-0.8-1.6-0.8-2.4-3.2-1.6-5.6l8-13.6c0.8-1.6 3.2-2.4 5.6-1.6 1.6 0.8 2.4 3.2 1.6 5.6l-8 13.6c0 1.6-1.6 2.4-3.2 2.4zm121.6-13.6c-2.4 0-4-1.6-4-4v-16c0-2.4 1.6-4 4-4s4 1.6 4 4v16c0 2.4-1.6 4-4 4zm-104.8-14.4c-0.8 0-1.6 0-2.4-0.8-1.6-0.8-2.4-3.2-1.6-5.6l8-13.6c0.8-1.6 4-2.4 5.6-1.6s2.4 3.2 1.6 5.6l-8 13.6c-0.8 1.6-2.4 2.4-3.2 2.4zm104.8-17.6c-2.4 0-4-1.6-4-4v-16c0-2.4 1.6-4 4-4s4 1.6 4 4v16c0 2.4-1.6 4-4 4zm-88.8-9.6c-0.8 0-1.6 0-2.4-0.8-1.6-0.8-2.4-3.2-1.6-5.6l8-13.6c0.8-1.6 3.2-2.4 5.6-1.6 1.6 0.8 2.4 3.2 1.6 5.6l-8 13.6c-0.8 1.6-1.6 2.4-3.2 2.4zm88.8-22.4c-2.4 0-4-1.6-4-4v-16c0-2.4 1.6-4 4-4s4 1.6 4 4v16c0 2.4-1.6 4-4 4zm-72.8-5.6c-0.8 0-1.6 0-2.4-0.8-1.6-0.8-2.4-3.2-1.6-5.6l8-13.6c0.8-1.6 3.2-2.4 5.6-1.6 1.6 0.8 2.4 3.2 1.6 5.6l-8 13.6c0 1.6-1.6 2.4-3.2 2.4zm16.8-27.2c-0.8 0-1.6 0-2.4-0.8-1.6-0.8-2.4-3.2-1.6-5.6l8-13.6c0.8-1.6 3.2-2.4 5.6-1.6 1.6 0.8 2.4 3.2 1.6 5.6l-8 13.6c-0.8 1.6-2.4 2.4-3.2 2.4zm16-28c-0.8 0-1.6 0-2.4-0.8-1.6-0.8-2.4-3.2-1.6-5.6l8-13.6c0.8-1.6 4-2.4 5.6-1.6s2.4 3.2 1.6 5.6l-8 13.6c-0.8 1.6-1.6 2.4-3.2 2.4zm16-27.2c-0.8 0-1.6 0-2.4-0.8-1.6-0.8-2.4-3.2-1.6-5.6l8-13.6c1.6-1.6 4-2.4 6.4-1.6 1.6 0.8 2.4 3.2 1.6 5.6l-8 13.6c-1.6 1.6-2.4 2.4-4 2.4z"/>
	<path d="m438.4 333.6c-1.6 0-2.4-0.8-3.2-1.6l-8-13.6c-0.8-1.6-0.8-4 1.6-5.6 1.6-0.8 4-0.8 5.6 1.6l8 13.6c0.8 1.6 0.8 4-1.6 5.6-1.6-0.8-2.4 0-2.4 0zm-0.57816 24.578c-0.8 0-3.2427 0.0557-4.1893-0.8l-72.032-42.178c-1.6-0.8-2.4-3.2-1.6-5.6 0.8-1.6 3.2-2.4 5.6-1.6l72.032 42.178c1.6 0.8 3.7921 3.6176 2.9921 6.0176-0.56984 1.5165-1.2028 1.9824-2.8028 1.9824zm-89.022-50.178c-0.8 0-1.6 0-1.6-0.8l-13.6-8c-1.6-0.8-2.4-3.2-1.6-5.6 0.8-1.6 3.2-2.4 5.6-1.6l13.6 8c1.6 0.8 2.4 3.2 1.6 5.6-0.8 1.6-2.4 2.4-4 2.4zm72.8-2.4c-1.6 0-2.4-0.8-3.2-1.6l-8-13.6c-0.8-1.6-0.8-4 1.6-5.6 1.6-0.8 4-0.8 5.6 1.6l8 13.6c0.8 1.6 0.8 4-1.6 5.6zm-100-13.6c-0.8 0-1.6 0-1.6-0.8l-13.6-8c-1.6-0.8-2.4-3.2-1.6-5.6 0.8-1.6 3.2-2.4 5.6-1.6l13.6 8c1.6 0.8 2.4 3.2 1.6 5.6-1.6 1.6-3.2 2.4-4 2.4zm84-13.6c-1.6 0-2.4-0.8-3.2-1.6l-8-13.6c-0.8-1.6-0.8-4 1.6-5.6 1.6-0.8 4-0.8 5.6 1.6l8 13.6c0.8 1.6 0.8 4-1.6 5.6-0.8-0.8-1.6 0-2.4 0zm-112-2.4c-0.8 0-1.6 0-1.6-0.8l-13.6-8c-1.6-0.8-2.4-3.2-1.6-5.6 0.8-1.6 3.2-2.4 5.6-1.6l13.6 8c1.6 0.8 2.4 3.2 1.6 5.6-1.6 1.6-2.4 2.4-4 2.4zm-28-16c-0.8 0-1.6 0-1.6-0.8l-13.6-8c-1.6-0.8-2.4-3.2-1.6-5.6 0.8-1.6 3.2-2.4 5.6-1.6l13.6 8c1.6 0.8 2.4 3.2 1.6 5.6-0.8 1.6-2.4 2.4-4 2.4zm124-9.6c-1.6 0-2.4-0.8-3.2-1.6l-8-13.6c-0.8-1.6-0.8-4 1.6-5.6 1.6-0.8 4-0.8 5.6 1.6l8 13.6c0.8 1.6 0.8 4-1.6 5.6zm-137.6-8.8c-2.4 0-4-1.6-4-4v-16c0-2.4 1.6-4 4-4s4 1.6 4 4v16c0 2.4-1.6 4-4 4zm121.6-18.4c-1.6 0-2.4-0.8-3.2-1.6l-8-13.6c-0.8-1.6-0.8-4 1.6-5.6 1.6-0.8 4-0.8 5.6 1.6l8 13.6c0.8 1.6 0.8 4-1.6 5.6-1.6-0.8-2.4 0-2.4 0zm-121.6-13.6c-2.4 0-4-1.6-4-4v-16c0-2.4 1.6-4 4-4s4 1.6 4 4v16c0 2.4-1.6 4-4 4zm104.8-14.4c-1.6 0-2.4-0.8-3.2-1.6l-8-13.6c-0.8-1.6-0.8-4 1.6-5.6 1.6-0.8 4-0.8 5.6 1.6l8 13.6c0.8 1.6 0.8 4-1.6 5.6zm-104.8-17.6c-2.4 0-4-1.6-4-4v-16c0-2.4 1.6-4 4-4s4 1.6 4 4v16c0 2.4-1.6 4-4 4zm88.8-9.6c-1.6 0-2.4-0.8-3.2-1.6l-8-13.6c-0.8-1.6-0.8-4 1.6-5.6 1.6-0.8 4-0.8 5.6 1.6l8 13.6c0.8 1.6 0.8 4-1.6 5.6-0.8-0.8-1.6 0-2.4 0zm-88.8-22.4c-2.4 0-3.9946-1.6-4-4l-0.22274-98.12c-5e-3 -2.4 1.6-4 4-4s4.2227 2.1151 4.2227 4.5151v97.605c0 2.4-1.6 4-4 4zm72.8-5.6c-1.6 0-2.4-0.8-3.2-1.6l-8-13.6c-0.8-1.6-0.8-4 1.6-5.6 1.6-0.8 4-0.8 5.6 1.6l8 13.6c0.8 1.6 0.8 4-1.6 5.6zm-16.8-27.2c-1.6 0-2.4-0.8-3.2-1.6l-8-13.6c-0.8-1.6-0.8-4 1.6-5.6 1.6-0.8 4-0.8 5.6 1.6l8 13.6c0.8 1.6 0.8 4-1.6 5.6-0.8-0.8-1.6 0-2.4 0zm-16-28c-1.6 0-2.4-0.8-3.2-1.6l-8-13.6c-0.8-1.6-0.8-4 1.6-5.6 1.6-0.8 4-0.8 5.6 1.6l8 13.6c0.8 1.6 0.8 4-1.6 5.6zm-16-27.2c-1.6 0-2.4-0.8-3.2-1.6l-8-13.6c-0.8-1.6-0.8-4 1.6-5.6 1.6-1.6 4-0.8 4.8 0.8l8 13.6c0.8 1.6 0.8 4-1.6 5.6 0 0-0.8 0.8-1.6 0.8z"/>
	<path d="m400.8 372.8h-16c-2.4 0-4-1.6-4-4s1.6-4 4-4h16c2.4 0 4 1.6 4 4s-1.6 4-4 4zm-32 0h-16c-2.4 0-4-1.6-4-4s1.6-4 4-4h16c2.4 0 4 1.6 4 4s-1.6 4-4 4zm-32 0h-16c-2.4 0-4-1.6-4-4s1.6-4 4-4h16c2.4 0 4 1.6 4 4s-1.6 4-4 4zm-32 0h-16c-2.4 0-4-1.6-4-4s1.6-4 4-4h16c2.4 0 4 1.6 4 4s-1.6 4-4 4zm-32 0h-16c-2.4 0-4-1.6-4-4s1.6-4 4-4h16c2.4 0 4 1.6 4 4s-1.6 4-4 4zm-32 0h-16c-2.4 0-4-1.6-4-4s1.6-4 4-4h16c2.4 0 4 1.6 4 4s-1.6 4-4 4zm-32 0h-16c-2.4 0-4-1.6-4-4s1.6-4 4-4h16c2.4 0 4 1.6 4 4s-1.6 4-4 4zm-32 0h-16c-2.4 0-4-1.6-4-4s1.6-4 4-4h16c2.4 0 4 1.6 4 4s-1.6 4-4 4zm-32 0h-16c-2.4 0-4-1.6-4-4s1.6-4 4-4h16c2.4 0 4 1.6 4 4s-1.6 4-4 4zm-32 0h-16c-2.4 0-4-1.6-4-4s1.6-4 4-4h16c2.4 0 4 1.6 4 4s-1.6 4-4 4zm-32 0h-16c-2.4 0-4-1.6-4-4s1.6-4 4-4h16c2.4 0 4 1.6 4 4s-1.6 4-4 4zm-32 0h-6.4c-1.6 0-3.2-1.6-4-3.2s0-3.2 1.6-4.8l13.6-8c1.6-0.8 4-0.8 5.6 1.6 0.8 1.6 0.8 4-1.6 5.6l-5.6 3.2v1.6c0.8 2.4-0.8 4-3.2 4zm21.6-16c-1.6 0-2.4-0.8-3.2-1.6-0.8-1.6-0.8-4 1.6-5.6l13.6-8c1.6-0.8 4-0.8 5.6 1.6 0.8 1.6 0.8 4-1.6 5.6l-13.6 8zm27.2-16c-1.6 0-2.4-0.8-3.2-1.6-0.8-1.6-0.8-4 1.6-5.6l13.6-8c1.6-0.8 4-0.8 5.6 1.6 0.8 1.6 0.8 4-1.6 5.6l-13.6 8zm28-16c-1.5524 0.38723-2.4-0.8-3.2-1.6-0.8-1.6-0.8-4 1.6-5.6l13.6-8c1.6-0.8 4-0.8 5.6 1.6 0.8 1.6 0.96705 3.4432-1.433 5.0432l-13.711 7.9443zm236-9.6c-0.8 0-1.6 0-1.6-0.8l-13.6-8c-1.6-0.8-2.4-3.2-1.6-5.6 0.8-1.6 3.2-2.4 5.6-1.6l13.6 8c1.6 0.8 2.4 3.2 1.6 5.6-1.6 1.6-3.2 2.4-4 2.4zm-208-6.4c-1.6 0-2.4-0.8-3.2-1.6-0.8-1.6-0.8-4 1.6-5.6l13.6-8c1.6-0.8 4-0.8 5.6 1.6 0.8 1.6 0.8 4-1.6 5.6l-13.6 8zm180-9.6c-0.8 0-1.6 0-1.6-0.8l-13.6-8c-1.6-0.8-2.4-3.2-1.6-5.6 0.8-1.6 3.2-2.4 5.6-1.6l13.6 8c1.6 0.8 2.4 3.2 1.6 5.6-1.6 1.6-2.4 2.4-4 2.4zm-152.8-6.4c-1.6 0-2.4-0.8-3.2-1.6-0.8-1.6-0.8-4 1.6-5.6l13.6-8c1.6-0.8 4-0.8 5.6 1.6 0.8 1.6 0.8 4-1.6 5.6l-13.6 8zm124.8-9.6c-0.8 0-1.6 0-1.6-0.8l-13.6-8c-1.6-0.8-2.4-3.2-1.6-5.6 0.8-1.6 3.2-2.4 5.6-1.6l13.6 8c1.6 0.8 2.4 3.2 1.6 5.6-0.8 1.6-2.4 2.4-4 2.4zm-96.8-6.4c-1.6 0-2.4-0.8-3.2-1.6-0.8-1.6-0.8-4 1.6-5.6l13.6-8c1.6-0.8 4-0.8 5.6 1.6 0.8 1.6 0.8 4-1.6 5.6l-13.6 8zm69.6-9.6c-0.8 0-1.6 0-1.6-0.8l-13.6-8c-1.6-0.8-2.4-3.2-1.6-5.6 0.8-1.6 3.2-2.4 5.6-1.6l13.6 8c1.6 0.8 2.4 3.2 1.6 5.6-1.6 1.6-3.2 2.4-4 2.4zm-41.6-6.4c-1.6 0-2.4-0.8-3.2-1.6-0.8-1.6-0.8-4 1.6-5.6l13.6-8c1.6-0.8 4-0.8 5.6 1.6 0.8 1.6 0.8 4-1.6 5.6l-13.6 8z"/></g><g fill="#973fbc">


	<path d="m252 504c-139.2 0-252-112.8-252-252s112.8-252 252-252 252 112.8 252 252-112.8 252-252 252zm0-488c-130.4 0-236 105.6-236 236s105.6 236 236 236 236-105.6 236-236-105.6-236-236-236z"/>
	<path d="m149.6 318.4c-2.4 0-4-0.8-5.6-2.4-2.4-2.4-3.2-6.4-1.6-9.6l102.4-174.4c1.6-3.2 5.6 0.8 8.8 1.6s5.6-0.8 5.6 2.4v115.2c0 3.2-1.6 5.6-4 7.2l-102.4 59.2s-1.6 0.8-3.2 0.8zm94.4-152.8-72 122.4 72-41.6z"/>
	<path d="m354.4 318.4c-1.6 0-2.4 0-4-0.8l-102.4-59.2c-2.4-1.6-4-4-4-7.2v-114.4c0-4 2.4-4 5.6-4.8s7.2-2.4 8.8 0.8l102.4 173.6c1.6 3.2 1.6 7.2-1.6 9.6-0.8 1.6-3.2 2.4-4.8 2.4zm-94.4-72 72 41.6-72-122.4z"/>
	<path d="m354.4 318.4h-204.8c-4 0-6.4-2.4-8-5.6s0.8-7.2 4-8.8l102.4-60c2.4-1.6 5.6-1.6 8 0l101.6 58.4c3.2 0.8 4.8 4 4.8 7.2 0 4.8-4 8.8-8 8.8zm-174.4-16h144l-72-41.6z"/>
	<path d="m252 501.6c-3.2 0-5.6-1.6-7.2-4l-208.8-356.8c-1.6-2.4-1.6-5.6 0-8s4-4 7.2-4h419.2c3.2 0 5.6 1.6 7.2 4s1.6 5.6 0 8l-210.4 356.8c-1.6 2.4-4 4-7.2 4zm-195.2-356.8 195.2 332.8 195.2-332.8z"/>
</g></g><g><path d="m446.75 338.8c-2.5887 0.0827-4.0346 3.7159-2.7475 6.0041l7.2 12.8-18.4-10.4c-2.4-0.8-4.7999-3.9e-4 -5.5999 1.5996-0.8 2.4-3.9e-4 4.7999 1.5996 5.5999l16.002 10.4h-28.002c-2.4 0-4.0002 1.6003-4.0002 4.0003s1.6005 3.9633 4.0002 4.0002l45.597 0.70256c9e-3 3e-3 0.0189 6e-3 0.0283 0.01 0.90424 0.33495 1.8801-0.0238 2.6886-0.71244 0.45821-0.32125 0.81388-0.73728 1.0779-1.2034 0.0129-0.0225 0.0245-0.046 0.0369-0.0689 0.0695-0.12868 0.132-0.26072 0.18703-0.39621 1e-3 -3e-3 2e-3 -7e-3 4e-3 -0.01 1e-3 -3e-3 3e-3 -6e-3 5e-3 -9e-3h1e-3c4e-3 -0.0108 6e-3 -0.0236 0.01-0.0344 0.20541-0.52637 0.31096-1.0924 0.30024-1.6599 9e-3 -0.23838 9.4e-4 -0.47288-0.0197-0.70136l-14.712-25.976c-1.1828-2.0883-2.1455-4.0446-3.5344-4.0002z"/><path d="m57.734 338.9c2.4 0 4.9691 1.8045 4.0003 4.0002l-6.1338 13.901 15.828-8.985c2.4-0.8 4.7999-3.9e-4 5.5999 1.5996 0.8 2.4 3.9e-4 4.7999-1.5996 5.5999l-17.642 9.744h28.002c2.4 0 4.0002 1.6003 4.0002 4.0003s-1.6002 4.0002-4.0002 4.0002h-40.668c-9e-3 3e-3 -0.0189 6e-3 -0.0283 0.01-0.90424 0.33495-1.8801-0.0238-2.6886-0.71244-0.45821-0.32125-0.81388-0.73728-1.0779-1.2034-0.0129-0.0225-0.0245-0.046-0.0369-0.0689-0.0695-0.12868-0.132-0.26072-0.18703-0.39621-1e-3 -3e-3 -2e-3 -7e-3 -4e-3 -0.01-1e-3 -3e-3 -3e-3 -6e-3 -5e-3 -9e-3h-1e-3c-4e-3 -0.0108-6e-3 -0.0236-0.01-0.0344-0.20541-0.52637-0.31096-1.0924-0.30024-1.6599-9e-3 -0.23838-9.4e-4 -0.47288 0.0197-0.70136l12.934-25.075c1.1002-2.133 1.599-4.0002 3.999-4.0002z"/>
<path d="m266.68 32.072c-1.4296 1.9278-4.7122 3.4575-6.1862 1.5635l-4.4786-5.755-8e-3 18.02c-0.43685 2.4918-2.281 4.2232-4.069 4.1666-2.4918-0.43685-4.2232-2.281-4.1666-4.069l-0.45838-17.873-3.2024 5.499c-1.3689 2.3506-3.6496 3.1557-5.9783 1.8509s-3.2012-3.8779-1.7846-6.2004l10.643-17.449c2e-3 -0.0093 4e-3 -0.01948 5e-3 -0.02965 0.13508-0.95478 0.91456-1.6429 1.9047-2.0269 0.50043-0.25046 1.0355-0.36565 1.5711-0.37638 0.0259-6.55e-4 0.0521 3.08e-4 0.0782 2.83e-4 0.14625 1.3e-5 0.71295 4.172e-4 0.85831 0.016377 0.75347 0.16611 1.1018 0.27242 1.8494 0.47868 1.3349 1.1296 4.3552 5.4476 5.8026 7.4296l6.1176 8.8708c1.3625 1.9757 2.9324 3.9557 1.5028 5.8834z"/></g></svg>
