<svg xmlns="http://www.w3.org/2000/svg" xmlns:xlink="http://www.w3.org/1999/xlink" version="1.1" x="0px" y="0px" viewBox="0 0 90 112.5" style="enable-background:new 0 0 90 90;" xml:space="preserve"><path d="M83.9507675,56.4406509c-1.7277756-2.9925499-5.1449356-4.4121437-8.3578949-3.7564354  c0.5946579-1.9936829,0.4034042-4.2174911-0.7162704-6.1569252c-2.1603241-3.741539-6.9617844-5.0280151-10.7030029-2.8676949  l-0.3070412,0.17733c-0.6286621-3.6353035-3.3948212-6.5455894-6.953846-7.3862343l9.7565994-12.6374111  c0.6472931-0.8380585,0.7596817-1.9481792,0.2934418-2.8971672c-0.4660721-0.9488258-1.4136047-1.5384617-2.4725494-1.5384617  h-5.293602v-6.0552216c0-0.6260738-0.5075302-1.133604-1.1336021-1.133604h-6.5358734V6.1336031  C51.5271263,5.5075302,51.0195961,5,50.3935242,5H35.0545769c-0.6260757,0-1.133606,0.5075302-1.133606,1.1336031v6.0552225  h-6.5358677c-0.6260738,0-1.133604,0.5075302-1.133604,1.133604v6.0552216h-7.7528744l-2.9603243-9.6040478  c-0.1465588-0.4754658-0.5859118-0.7996769-1.0832396-0.7996769H6.1350608c-0.6260734,0-1.1336036,0.5075302-1.1336036,1.133604  c0,0.6260729,0.5075302,1.1336031,1.1336036,1.1336031h7.4832387l2.9519043,9.5765181  c0.0051823,0.0187855,0.0108509,0.0374088,0.0171661,0.0558701l5.1269627,16.6333599v15.975708  c0,0.6260719,0.5075321,1.1336021,1.133604,1.1336021h2.4704456c2.92486,0,5.3175716-2.0851822,5.9541702-5.1888237  l2.247612-10.9577332h15.2364349c-1.9381332,1.6892319-3.1666412,4.1729584-3.1666412,6.9397583  c0,2.7701988,1.2320633,5.3413773,3.3068848,7.0701218l-13.7190285,7.9206467l0.0019417,0.0033989  c-2.4037247,1.3395958-4.034008,3.9063988-4.034008,6.8480949c0,0.0319061,0.0021057,0.0631638,0.0024281,0.094902  l-5.1391087,2.9669647l0.0019436,0.0034027c-2.4037266,1.339592-4.0340099,3.906395-4.0340099,6.8480911  C21.9770012,81.4853439,25.4918194,85,29.8121452,85c1.467205,0,2.8408089-0.4061508,4.0160294-1.1107712l0.0017853,0.0030823  l6.8893929-3.9774933C41.8353043,82.882431,44.7020264,85,48.0548973,85c1.4672089,0,2.8408089-0.4061508,4.016037-1.1107712  l0.0017776,0.0030823L81.0811386,67.144455c3.7423477-2.1606522,5.0294724-6.9622688,2.8696365-10.7038078L83.9507675,56.4406509z   M65.307045,45.6228371c2.3225937-1.340889,5.2195892-0.8126297,6.9382935,1.1144943l-6.9277725,3.9996758  c-0.5421829,0.3130379-0.7279282,1.0063133-0.4148941,1.5485039c0.2100372,0.3637238,0.5909271,0.5669632,0.9828339,0.5669632  c0.1923828,0,0.3871994-0.0489044,0.5656662-0.1520615l6.9276123-3.9996758  c0.8092346,2.4523087-0.1823502,5.2255859-2.5054245,6.5669632L46.5371628,69.318222  c0.1804085-0.658783,0.2785454-1.3512497,0.2785454-2.0665512c0-3.6327171-2.485508-6.6952248-5.8448601-7.5783005  L65.307045,45.6228371z M54.7967567,47.722435c-1.2754669,0-2.3130341-1.0375748-2.3130341-2.3130379  c0-1.2754593,1.0375748-2.3130379,2.3130341-2.3130379c1.2754631,0,2.3130379,1.037571,2.3130379,2.3130379  S56.0722198,47.722435,54.7967567,47.722435z M56.92939,19.3776531H43.8576508v-4.9216194H56.92939V19.3776531z   M36.1881752,7.2672076h13.0717392v4.9216199H36.1881752V7.2672076z M28.5187016,14.4560337h13.0719013v4.9216194H28.5187016  V14.4560337z M64.4901962,21.6448593c0.2651062,0,0.3880157,0.1697159,0.4375763,0.2709312  c0.0497131,0.1010532,0.1088257,0.3020248-0.0531235,0.5117416L54.23983,36.2024307H23.6846886l-4.4871254-14.5575714H64.4901962z   M29.0514927,48.9718246c-0.4142513,2.0200806-1.9146557,3.3771667-3.7331181,3.3771667h-1.3368416V38.4696388h7.2241306  L29.0514927,48.9718246z M47.8571663,45.4093971c0-3.8265572,3.1131973-6.9397545,6.9397545-6.9397545  c3.7131958,0,6.7541695,2.9316597,6.931015,6.6017799l-2.484375,1.43433c0.0868034-0.3515778,0.133606-0.718544,0.133606-1.0965157  c0-2.5255089-2.0547333-4.580246-4.5802422-4.580246c-2.5255051,0-4.5802383,2.0547371-4.5802383,4.580246  c0,2.083725,1.3991928,3.8458252,3.3072052,4.3988647l-2.4835625,1.4338455  c-1.9765167-1.2725487-3.1831589-3.4542503-3.1831589-5.83255H47.8571663z M38.9807281,61.6837349  c3.070118,0,5.5679359,2.4978142,5.5679359,5.5679359c0,3.0701141-2.4978142,5.5677719-5.5679359,5.5677719  s-5.5679359-2.4976501-5.5679359-5.5677719C33.4127922,64.1815414,35.9106064,61.6837349,38.9807281,61.6837349z   M24.2440472,77.1650314c0-3.0701294,2.4978142-5.5679398,5.567934-5.5679398s5.5679359,2.497818,5.5679359,5.5679398  c0,3.0701141-2.4978142,5.5677719-5.5679359,5.5677719S24.2440453,80.2351532,24.2440472,77.1650314z M37.3684196,79.2314301  c0.1804047-0.6587906,0.2785416-1.3512573,0.2785416-2.0665588c0-0.7851028-0.1174088-1.5429993-0.3332787-2.2586212  c0.5374908,0.1169205,1.0948982,0.1802444,1.6668816,0.1802444c0.5352211,0,1.0579758-0.0542526,1.5634041-0.1570892  c-0.2131195,0.7178955-0.3242111,1.4693146-0.3242111,2.2353058c0,0.1387863,0.0038872,0.2767639,0.0110092,0.4139252  L37.3684196,79.2314301z M42.4869614,77.1650314c0-1.3765182,0.5029945-2.6868057,1.4173279-3.7088318l3.0150604-1.7407303  c0.3719826-0.0770874,0.7528725-0.1183777,1.1353798-0.1183777c3.0701256,0,5.5679359,2.497818,5.5679359,5.5679398  c0,3.0701141-2.497654,5.5677719-5.5677757,5.5677719c-3.0701256,0-5.5679359-2.4976501-5.5679359-5.5677719H42.4869614z   M79.9476929,65.1810608L55.611496,79.2314301c0.1804085-0.6587906,0.2785416-1.3512573,0.2785416-2.0663986  c0-3.4966888-2.3028336-6.4649429-5.4712563-7.4699631l21.5883369-12.4639702  c0.6220245-0.3590317,1.1744156-0.7923889,1.6561966-1.2804871l0.7180557-0.4144135  c2.6589508-1.5350609,6.0707703-0.6207275,7.6058273,2.037899c1.5350647,2.658947,0.6200867,6.0712547-2.0395126,7.6069641  H79.9476929z M79.4650955,59.0302925c0.3130417,0.5421829,0.1271286,1.2354622-0.4148941,1.5485039L60.7138443,71.1653595  c-0.1786232,0.1031494-0.3734436,0.1520615-0.56567,0.1520615c-0.3919067,0-0.7727966-0.2032394-0.9828339-0.5669632  c-0.3130417-0.5421906-0.1271286-1.235466,0.4148979-1.5485077l18.3363571-10.5865593  C78.4589462,58.3023529,79.1522217,58.488266,79.4650955,59.0302925z M50.0911713,60.8370934  c-0.3130417-0.5421829-0.1271286-1.2354622,0.4148979-1.5485039l10.2184639-5.8995934  c0.542511-0.3131981,1.2356262-0.1272888,1.5485039,0.4149017c0.3130379,0.5421829,0.1271248,1.235466-0.4149017,1.5485039  l-10.2184601,5.8995934c-0.1786232,0.103157-0.3734436,0.1520653-0.56567,0.1520653  C50.6820984,61.4040604,50.3010483,61.2008209,50.0911713,60.8370934z"/><text x="0" y="105" fill="#000000" font-size="5px" font-weight="bold" font-family="'Helvetica Neue', Helvetica, Arial-Unicode, Arial, Sans-serif">Created by ciko jeriko</text><text x="0" y="110" fill="#000000" font-size="5px" font-weight="bold" font-family="'Helvetica Neue', Helvetica, Arial-Unicode, Arial, Sans-serif">from the Noun Project</text></svg>