<?xml version="1.0" encoding="UTF-8"?>
<svg id="svg1" width="1.66667in" height="1.66667in" version="1.1" viewBox="0 0 500 500" xmlns="http://www.w3.org/2000/svg">
	<path id="Selection #8" d="m0.49855415 471.76c11.36999985 5.58 20.31313185 16.59077 28.22313185 27.73077l-21.3799996 3e-3 -6.84220701-0.01 2.4673e-4 -8.88415z" fill="#353535" stroke="#000"/>
	<path id="Selection #9" d="M 0.49414014,430.01 C 9.1041401,431.34 16.6,435.62 24,440.05 c 25.37,15.17 35.93,32.17586 45.03,59.45586 -27.4328,-0.0428 -31.443027,0.0238 -36.934414,-0.009 L 20.4,484.67 C 8.33,473.12 1.2997261,469.22 0.49972612,467.79 Z" fill="#a97a57" stroke="#000"/>
	<path id="Selection #6" d="m5.33 422.86c6.17-6.21 22.92-23.11 29.67-29.86l291-291 14-13.98c1.84-1.75 4.88-4.92 6.06-6.11 1.82 2.28 14.24 14.39 16.94 17.09l38 38 11.94 12c1.51 1.69 2.42 2.47 4.97 5.01-3.13 3.19-7.17 7.25-8.91 8.99l-76 76-40 39.99-12 11.01-179 179c-6.09 6.09-21.21 21.06-26.55 26.36-1.52-7.45-4.17-13.63-7.49-20.36-12.75-25.88-36.7-44.57-62.63-52.14z" fill="#e19526" stroke="#000"/>
	<g id="g1" fill="#d3d4d5" stroke="#000">
		<path id="Selection #5" d="m355.47 72.88c6.06-1.59 15.76 2.28 21.53 4.57 19.57 7.76 35.09 19.87 46.66 37.55 2.72 4.16 11.66 17.4 10.37 22.17-2.14 2.69-4.23 5.06-6.03 6.81-1.24 1.19-4.97 5.09-5.94 6.1-1.75-1.9-3.37-3.63-5.06-5.14l-12-11.94-54.68-54.81c2.26-2.6 4.33-4.67 5.15-5.31z"/>
		<path id="Selection #4" d="m360.53 67.81c1.46-1.97 3.81-4.17 5.62-5.65 4.67-0.66 14.72 3.03 18.85 4.53 20.16 7.32 36.9 20.35 48.66 38.31 2.68 4.09 10.44 17.16 10.57 21.73-1.67 2.44-3.86 3.99-5.67 6.05-8.92-31.54-45.88-60.64-78.03-64.97z"/>
		<path id="Selection #3" d="m370.53 57.81c1.46-1.97 3.81-4.17 5.62-5.65 4.67-0.66 14.72 3.03 18.85 4.53 20.16 7.32 36.9 20.35 48.66 38.31 2.68 4.09 10.44 17.16 10.57 21.73-1.67 2.44-3.86 3.99-5.67 6.05-8.92-31.54-45.88-60.64-78.03-64.97z"/>
		<path id="Selection #2" d="m380.53 47.81c1.46-1.97 3.81-4.17 5.62-5.65 4.67-0.66 14.72 3.03 18.85 4.53 20.16 7.32 36.9 20.35 48.66 38.31 2.68 4.09 10.44 17.16 10.57 21.73-1.67 2.44-3.68 3.74-5.49 5.81-8.92-31.54-46.06-60.4-78.21-64.73z"/>
		<path id="Selection #1" d="m390.35 37.82c4.22-4.49 9.33-9.69 13.65-13.8 1.51-1.44 4.79-4.71 6.06-5.86 1.45 1.2 4.43 4.42 5.94 5.86l11 10.98 38 38c2.7 2.7 14.66 14.73 17.04 17.14-2.65 2.38-9.97 9.66-13.04 11.86l-11.44-21c-15.36-22.02-38.19-39.23-67.21-43.18z"/>
	</g>
	<path id="Selection" d="m435.94055 1.5483859c2.3562-0.4833742 12.11945-1.13190182 16.27945-1.00190182 26.44-0.19 47.24 21.08999992 47.28 47.51999992 0.02 11.15-0.04 18.11-5.95 28.08-1.28 2.15-5.1 8.113516-7.22 9.963516-2.21-2.18-5.46-5.28-7.33-7.11l-16-15.853516-35-35c-2.54-2.54-11.66-11.62-14.09-14.1 1.93-2.27 5.29-4.2999999 7.09-5.5399999 6.13-4.22 7.75055-5.1280982 14.94055-6.9580982z" fill="#f5a19d" stroke="#000"/>
</svg>
