<?xml version="1.0" encoding="UTF-8" standalone="no"?>
<!DOCTYPE svg PUBLIC "-//W3C//DTD SVG 20010904//EN"
              "http://www.w3.org/TR/2001/REC-SVG-20010904/DTD/svg10.dtd">

<svg xmlns="http://www.w3.org/2000/svg"
     width="1.66667in" height="1.66667in"
     viewBox="0 0 500 500">
  <path id="Selection #8"
        fill="none" stroke="black" stroke-width="1"
        d="M 0.23,471.76
           C 11.60,477.34 20.57,488.59 28.48,499.73
             28.48,499.73 7.10,499.77 7.10,499.77
             7.10,499.77 0.27,499.76 0.27,499.76
             0.27,499.76 0.28,490.60 0.28,490.60
             0.28,490.60 0.23,471.76 0.23,471.76 Z" />
  <path id="Selection #9"
        fill="none" stroke="black" stroke-width="1"
        d="M 0.25,430.01
           C 8.86,431.34 16.60,435.62 24.00,440.05
             49.37,455.22 59.93,472.47 69.03,499.75
             69.03,499.75 44.04,499.69 44.04,499.69
             31.39,499.54 40.62,499.64 32.12,499.57
             32.12,499.57 20.40,484.67 20.40,484.67
             8.33,473.12 1.08,469.22 0.28,467.79
             0.28,467.79 0.25,430.01 0.25,430.01 Z" />
  <path id="Selection #6"
        fill="none" stroke="black" stroke-width="1"
        d="M 5.33,422.86
           C 11.50,416.65 28.25,399.75 35.00,393.00
             35.00,393.00 91.00,337.00 91.00,337.00
             91.00,337.00 265.00,163.00 265.00,163.00
             265.00,163.00 326.00,102.00 326.00,102.00
             326.00,102.00 340.00,88.02 340.00,88.02
             341.84,86.27 344.88,83.10 346.06,81.91
             347.88,84.19 360.30,96.30 363.00,99.00
             363.00,99.00 401.00,137.00 401.00,137.00
             401.00,137.00 412.94,149.00 412.94,149.00
             414.45,150.69 415.36,151.47 417.91,154.01
             414.78,157.20 410.74,161.26 409.00,163.00
             409.00,163.00 393.00,179.00 393.00,179.00
             393.00,179.00 333.00,239.00 333.00,239.00
             333.00,239.00 293.00,278.99 293.00,278.99
             293.00,278.99 281.00,290.00 281.00,290.00
             281.00,290.00 155.00,416.00 155.00,416.00
             155.00,416.00 102.00,469.00 102.00,469.00
             95.91,475.09 80.79,490.06 75.45,495.36
             73.93,487.91 71.28,481.73 67.96,475.00
             55.21,449.12 31.26,430.43 5.33,422.86 Z" />
  <path id="Selection #5"
        fill="none" stroke="black" stroke-width="1"
        d="M 355.47,72.88
           C 361.53,71.29 371.23,75.16 377.00,77.45
             396.57,85.21 412.09,97.32 423.66,115.00
             426.38,119.16 435.32,132.40 434.03,137.17
             431.89,139.86 429.80,142.23 428.00,143.98
             426.76,145.17 423.03,149.07 422.06,150.08
             420.31,148.18 418.69,146.45 417.00,144.94
             417.00,144.94 405.00,133.00 405.00,133.00
             405.00,133.00 350.32,78.19 350.32,78.19
             352.58,75.59 354.65,73.52 355.47,72.88 Z" />
  <path id="Selection #4"
        fill="none" stroke="black" stroke-width="1"
        d="M 360.53,67.81
           C 361.99,65.84 364.34,63.64 366.15,62.16
             370.82,61.50 380.87,65.19 385.00,66.69
             405.16,74.01 421.90,87.04 433.66,105.00
             436.34,109.09 444.10,122.16 444.23,126.73
             442.56,129.17 440.37,130.72 438.56,132.78
             429.64,101.24 392.68,72.14 360.53,67.81 Z" />
  <path id="Selection #3"
        fill="none" stroke="black" stroke-width="1"
        d="M 370.53,57.81
           C 371.99,55.84 374.34,53.64 376.15,52.16
             380.82,51.50 390.87,55.19 395.00,56.69
             415.16,64.01 431.90,77.04 443.66,95.00
             446.34,99.09 454.10,112.16 454.23,116.73
             452.56,119.17 450.37,120.72 448.56,122.78
             439.64,91.24 402.68,62.14 370.53,57.81 Z" />
  <path id="Selection #2"
        fill="none" stroke="black" stroke-width="1"
        d="M 380.53,47.81
           C 381.99,45.84 384.34,43.64 386.15,42.16
             390.82,41.50 400.87,45.19 405.00,46.69
             425.16,54.01 441.90,67.04 453.66,85.00
             456.34,89.09 464.10,102.16 464.23,106.73
             462.56,109.17 460.55,110.47 458.74,112.54
             449.82,81.00 412.68,52.14 380.53,47.81 Z" />
  <path id="Selection #1"
        fill="none" stroke="black" stroke-width="1"
        d="M 390.35,37.82
           C 394.57,33.33 399.68,28.13 404.00,24.02
             405.51,22.58 408.79,19.31 410.06,18.16
             411.51,19.36 414.49,22.58 416.00,24.02
             416.00,24.02 427.00,35.00 427.00,35.00
             427.00,35.00 465.00,73.00 465.00,73.00
             467.70,75.70 479.66,87.73 482.04,90.14
             479.39,92.52 472.07,99.80 469.00,102.00
             469.00,102.00 457.56,81.00 457.56,81.00
             442.20,58.98 419.37,41.77 390.35,37.82 Z" />
  <path id="Selection"
        fill="none" stroke="black" stroke-width="1"
        d="M 440.12,0.52
           C 444.24,0.19 448.06,0.27 452.22,0.40
             478.66,0.21 499.46,21.49 499.50,47.92
             499.52,59.07 499.46,66.03 493.55,76.00
             492.27,78.15 488.45,84.26 486.33,86.11
             484.12,83.93 480.87,80.83 479.00,79.00
             479.00,79.00 463.00,63.00 463.00,63.00
             463.00,63.00 428.00,28.00 428.00,28.00
             425.46,25.46 416.34,16.38 413.91,13.90
             415.84,11.63 419.20,9.60 421.00,8.36
             427.13,4.14 432.93,2.35 440.12,0.52 Z" />
</svg>
