<?xml version="1.0" encoding="UTF-8"?>
<svg id="svg1" width="3.33333in" height="3.33333in" version="1.1" viewBox="0 0 1e3 1e3" xmlns="http://www.w3.org/2000/svg" fill="#000">
<path id="Selection" d="m489.2 1.95c4.64-0.74 9.32-0.53 14-0.52 26.01 0.04 46.96 22.29 47.01 48l-0.21 293.57v99c0.04 2.14-0.04 4.77 1.6 6.4 1.92 1.92 5.86 1.59 8.4 1.6h376.61074c18.39 0 30.41-2.77 46 9.52 7.06 5.55 14.84 16.54 16.81 25.48v24c0.08 21.64-21.76 40.97-42.81 41h-398.61074c-2.14 0.04-4.77-0.04-6.4 1.6-1.92 1.92-1.59 5.86-1.6 8.4v389.53c-0.01 7.15-0.72 11.29-3.45 18-16.34 40.1-75.4 40.58-92.68 1-2.97-6.83-3.86-11.64-3.87-19v-376.53c0-4.19 1.03-18.78-1.6-21.4-1.92-1.92-5.86-1.59-8.4-1.6h-394.75c-21.88-0.03-42.97-19.8-43-42v-18c0.24-17.62 18.24-35.91 35-39.48 2.75-0.59 5.22-0.52 8-0.52h381.75c4.19 0 18.78 1.03 21.4-1.6 1.92-1.92 1.59-5.86 1.6-8.4l0.2-328.57v-63c0.08-16.86 9.62-32.02 24-40.55 4.71-2.79 9.74-4.53 15-5.93z"/>
</svg>
