<?xml version="1.0" encoding="iso-8859-1"?>
<!-- Uploaded to: SVG Repo, www.svgrepo.com, Generator: SVG Repo Mixer Tools -->
<svg fill="#000000" height="800px" width="800px" version="1.1" id="Layer_1" xmlns="http://www.w3.org/2000/svg" xmlns:xlink="http://www.w3.org/1999/xlink" 
	 viewBox="0 0 474.9 474.9" xml:space="preserve">
<g transform="translate(0 -540.36)">
	<g>
		<g>
			<path d="M269.354,704.56c-13.9-6.6-30.6-2.5-39.9,9.7c-9.6,12.7-8.6,29.9,2.5,41.1l0.4,0.4c5.3,6,5.6,15.3,0.9,22.6
				c-5.1,6.5-14,8.4-21.7,4.5c-0.1,0-0.1-0.1-0.2-0.1c-7.3-3.5-10.9-11.6-8.6-19.3c1.2-4-1-8.2-5-9.4s-8.2,1-9.4,5
				c-2.4,8-1.5,16.2,2,23.2l-15.1,13.4c-3.1,2.7-3.4,7.5-0.6,10.6c2.7,3.1,7.5,3.4,10.6,0.6l15-13.3c1.4,1,3,1.9,4.6,2.7
				c14.3,7.2,30.9,3.5,40.4-9.1l0,0c0.1-0.1,0.2-0.3,0.3-0.4c8.7-13.1,7.8-30-2-41.1l-0.5-0.6c-0.1-0.1-0.2-0.2-0.3-0.3
				c-5.9-5.9-6.4-14.8-1.3-21.6c5-6.6,14-8.7,21.5-5.2c7.4,3.5,11.4,12.3,9.1,19.9c-1.2,4,1,8.2,5,9.4s8.2-1,9.4-5
				c2.4-7.8,1.4-16.1-2.1-23.1l15.2-13.4c3.1-2.7,3.4-7.5,0.6-10.6c-2.7-3.1-7.5-3.4-10.6-0.6l-14.9,13.2
				C273.054,706.56,271.254,705.46,269.354,704.56z"/>
			<path d="M459.954,540.36h-186.4c-1.8,0-3.5,0.6-4.9,1.8l-258.6,222.6c-1.6,1.3-2.5,3.3-2.6,5.4s0.7,4.1,2.2,5.6l186.4,183.1
				c1.5,1.4,3.4,2.1,5.3,2.1v0c1.7,0,3.5-0.6,4.9-1.7l258.6-221.9c1.6-1.4,2.6-3.5,2.6-5.7v-183.8
				C467.454,543.76,464.054,540.36,459.954,540.36z M452.554,728.16l-250.8,215.1l-175.7-172.5v0l250.4-215.5h176.1V728.16z"/>
			<path d="M455.054,780.26l-253.3,217.3l-181.5-181.3c-2.9-2.9-7.7-2.9-10.6,0c-2.9,2.9-2.9,7.7,0,10.6l186.4,186.2
				c1.5,1.5,3.4,2.2,5.3,2.2c1.7,0,3.5-0.6,4.9-1.7l258.6-221.9c3.1-2.7,3.5-7.5,0.8-10.6S458.154,777.56,455.054,780.26z"/>
			<path d="M382.254,669.26c24.3,0,44-19.7,44-44s-19.7-44-44-44c-23.8,0-43.2,19.8-43.2,44
				C339.054,649.56,358.454,669.26,382.254,669.26z M382.254,596.36c16,0,29,13,29,29s-13,29-29,29c-15.5,0-28.2-13-28.2-29
				S366.654,596.36,382.254,596.36z"/>
		</g>
	</g>
</g>
</svg>