<?xml version="1.0" encoding="UTF-8"?>
<svg id="svg1" width="236.50764" height="236.48091" fill="#000000" version="1.1" viewBox="0 0 739.08639 739.00285" xmlns="http://www.w3.org/2000/svg">
	<path id="Selection" d="m713.48415 8.9616899c3.80423 2.7577201 6.965 6.2154701 10.26719 9.5318001 18.36356 18.42013 17.44433 48.96714-0.70003 67.18221l-207.73383 207.43685-70.00358 70.00357c-1.48492 1.54149-3.40118 3.34462-3.39411 5.65686 0 2.71529 3.01935 5.26794 4.80833 7.07106l266.30401 266.30401c13.00369 13.00369 23.4618 19.54443 25.79525 39.25857 1.06773 8.91662-1.20208 22.18901-6.13062 29.90355l-16.97056 16.97056c-15.24522 15.35836-44.35681 13.58352-59.26262-1.27987l-281.86035-281.86035c-1.5415-1.48493-3.34462-3.40119-5.65686-3.39411-2.71529 0-5.26794 3.01934-7.07107 4.80832l-275.439304 275.43931c-5.06289 5.04874-8.49235 7.47411-15.16744 10.2884-39.90911 16.80086-82.01025-24.62146-66.2417603-64.82755 2.72943-6.92965 5.5012903-10.96016 10.6985203-16.17153l266.246924-266.24692c2.96277-2.96278 14.00778-12.55114 14.00071-16.26345 0-2.71529-3.01934-5.26795-4.80832-7.07107l-279.130414-279.1304c-15.4502803-15.49271-16.3836603-44.3851-0.7071-60.10408l12.72792-12.7279201c12.62893-12.28952 38.28983-12.49458 52.66531-3.16784 2.36174 1.52735 4.05879 3.3234 6.02455 5.2891601l269.938024 269.93801c2.96277 2.96278 12.55114 14.00779 16.26345 14.00072 2.71529 0 5.26795-3.01935 7.07107-4.80833l232.4755-232.19265 44.54772-44.54773c11.97839-11.8652501 29.44393-15.8391901 45.64375-11.7026201 5.3033 1.35765 10.09041 3.68403 14.79974 6.41346z"/>
</svg>
